<svg width="70" height="70" viewBox="0 0 70 70" fill="none" xmlns="http://www.w3.org/2000/svg">
<g clip-path="url(#clip0_17_15)">
<path d="M35 70C54.33 70 70 54.33 70 35C70 15.67 54.33 0 35 0C15.67 0 0 15.67 0 35C0 54.33 15.67 70 35 70Z" fill="#5B5CA6"/>
<path d="M41.1214 21.7365C41.2854 17.8427 39.3349 14.0182 35.6599 12.4761C32.3568 11.087 28.3208 11.5828 25.4443 13.7156C22.5495 15.8667 21.1057 19.4724 21.4339 22.8302C21.9042 27.6354 25.838 30.2641 27.2672 31.2156C29.7865 32.8964 32.2656 33.3594 36.3818 34.1323C41.5406 35.0985 47.9901 35.3099 50.2359 41.0594C51.8073 45.0844 49.6453 48.9162 49.1422 49.8094C46.776 54.0057 41.8578 56.4047 37.1036 56.0912C32.3568 55.7776 28.0656 52.9485 25.1562 49.299C23.4062 47.1005 22.0792 44.5302 21.4339 41.7886" fill="#5B5CA6"/>
<path d="M38.5693 21.6271C38.6276 19.0422 37.3734 16.3151 34.9927 15.1922C32.6922 14.0802 29.5896 14.3974 27.5333 15.8302C25.4771 17.212 24.2557 19.9099 24.5292 22.3891C24.7297 24.5474 26.1187 26.312 27.8396 27.6026C30.687 29.9505 34.5333 30.2859 38.099 30.8875C42.1714 31.4964 46.5026 31.963 49.9953 34.6974C55.3182 38.9193 55.7922 46.0688 52.551 51.7307C50.0208 56.3245 45.3286 59.3177 40.25 60.076C32.5755 61.2573 25.1089 56.875 20.7812 50.8412C19.9326 49.6697 19.1769 48.4136 18.5396 47.0829C17.4641 44.8372 18.9829 42.3635 21.4066 41.7927V41.7927C23.8498 41.2173 26.2723 42.8222 27.5515 44.9819C28.6578 46.8497 30.1745 48.5375 31.9083 49.7766C36.2068 52.9922 42.1276 52.7333 45.4052 48.3766C46.6484 46.5464 47.5562 44.1146 46.55 42.0109C45.0771 38.7844 40.4323 38.5109 36.9396 37.7781C31.0661 36.6698 26.5672 35.7875 22.1594 31.2557C16.2312 25.3714 17.2812 15.4365 24.3396 10.9193C31.2521 6.59532 40.8734 9.27501 43.1703 17.4162C43.3438 18.0218 43.4728 18.6357 43.559 19.2531C43.7577 20.6777 42.5138 21.797 41.0767 21.7364L38.5729 21.6309C38.5709 21.6308 38.5693 21.6291 38.5693 21.6271V21.6271Z" fill="#FAF8FF"/>
</g>
<defs>
<clipPath id="clip0_17_15">
<rect width="70" height="70" fill="white"/>
</clipPath>
</defs>
</svg>
