<svg width="513" height="449" viewBox="0 0 513 449" fill="none" xmlns="http://www.w3.org/2000/svg">
<path fill-rule="evenodd" clip-rule="evenodd" d="M255.504 371C355.192 371 436.004 290.187 436.004 190.5C436.004 90.8126 355.192 10 255.504 10C155.817 10 75.0042 90.8126 75.0042 190.5C75.0042 290.187 155.817 371 255.504 371ZM255.504 381C360.714 381 446.004 295.71 446.004 190.5C446.004 85.2898 360.714 0 255.504 0C150.294 0 65.0042 85.2898 65.0042 190.5C65.0042 295.71 150.294 381 255.504 381Z" fill="#FAF8FF" fill-opacity="0.2"/>
<path fill-rule="evenodd" clip-rule="evenodd" d="M177.311 97.313C125.845 140.498 119.132 217.227 162.317 268.693C205.502 320.159 282.232 326.872 333.698 283.687C385.163 240.502 391.876 163.773 348.691 112.307C305.506 60.841 228.777 54.128 177.311 97.313ZM174.097 93.4827C120.516 138.443 113.527 218.326 158.487 271.907C203.447 325.488 283.33 332.477 336.911 287.517C390.493 242.557 397.481 162.674 352.522 109.093C307.562 55.5117 227.678 48.5228 174.097 93.4827Z" fill="#FAF8FF" fill-opacity="0.2"/>
<path fill-rule="evenodd" clip-rule="evenodd" d="M218.663 146.593C194.414 166.941 191.251 203.093 211.598 227.342C231.945 251.591 268.097 254.753 292.346 234.406C316.595 214.059 319.758 177.907 299.411 153.658C279.064 129.409 242.911 126.246 218.663 146.593ZM215.449 142.763C189.084 164.885 185.646 204.191 207.768 230.556C229.89 256.92 269.196 260.359 295.56 238.236C321.924 216.114 325.363 176.808 303.241 150.444C281.119 124.08 241.813 120.641 215.449 142.763Z" fill="#FAF8FF" fill-opacity="0.2"/>
<g filter="url(#filter0_b_9_8)">
<rect y="78" width="191" height="158" rx="20" fill="#FAF8FF"/>
</g>
<rect x="79" y="98" width="34" height="34" rx="10" fill="#5B5CA6"/>
<path d="M47.4003 167.112C46.6216 167.112 45.9176 166.979 45.2883 166.712C44.6696 166.445 44.179 166.061 43.8163 165.56C43.4536 165.059 43.267 164.467 43.2563 163.784H45.6563C45.6883 164.243 45.8483 164.605 46.1363 164.872C46.435 165.139 46.8403 165.272 47.3523 165.272C47.875 165.272 48.2856 165.149 48.5843 164.904C48.883 164.648 49.0323 164.317 49.0323 163.912C49.0323 163.581 48.931 163.309 48.7283 163.096C48.5256 162.883 48.2696 162.717 47.9603 162.6C47.6616 162.472 47.2456 162.333 46.7123 162.184C45.987 161.971 45.395 161.763 44.9363 161.56C44.4883 161.347 44.099 161.032 43.7683 160.616C43.4483 160.189 43.2883 159.624 43.2883 158.92C43.2883 158.259 43.4536 157.683 43.7843 157.192C44.115 156.701 44.579 156.328 45.1763 156.072C45.7736 155.805 46.4563 155.672 47.2243 155.672C48.3763 155.672 49.3096 155.955 50.0243 156.52C50.7496 157.075 51.1496 157.853 51.2243 158.856H48.7603C48.739 158.472 48.5736 158.157 48.2643 157.912C47.9656 157.656 47.5656 157.528 47.0643 157.528C46.627 157.528 46.275 157.64 46.0083 157.864C45.7523 158.088 45.6243 158.413 45.6243 158.84C45.6243 159.139 45.7203 159.389 45.9123 159.592C46.115 159.784 46.3603 159.944 46.6483 160.072C46.947 160.189 47.363 160.328 47.8963 160.488C48.6216 160.701 49.2136 160.915 49.6723 161.128C50.131 161.341 50.5256 161.661 50.8563 162.088C51.187 162.515 51.3523 163.075 51.3523 163.768C51.3523 164.365 51.1976 164.92 50.8883 165.432C50.579 165.944 50.1256 166.355 49.5283 166.664C48.931 166.963 48.2216 167.112 47.4003 167.112ZM52.8783 162.568C52.8783 161.651 53.065 160.851 53.4383 160.168C53.8116 159.475 54.329 158.941 54.9903 158.568C55.6516 158.184 56.409 157.992 57.2623 157.992C58.361 157.992 59.2676 158.269 59.9823 158.824C60.7076 159.368 61.193 160.136 61.4383 161.128H59.0223C58.8943 160.744 58.6756 160.445 58.3663 160.232C58.0676 160.008 57.6943 159.896 57.2463 159.896C56.6063 159.896 56.0996 160.131 55.7263 160.6C55.353 161.059 55.1663 161.715 55.1663 162.568C55.1663 163.411 55.353 164.067 55.7263 164.536C56.0996 164.995 56.6063 165.224 57.2463 165.224C58.153 165.224 58.745 164.819 59.0223 164.008H61.4383C61.193 164.968 60.7076 165.731 59.9823 166.296C59.257 166.861 58.3503 167.144 57.2623 167.144C56.409 167.144 55.6516 166.957 54.9903 166.584C54.329 166.2 53.8116 165.667 53.4383 164.984C53.065 164.291 52.8783 163.485 52.8783 162.568ZM62.6633 162.536C62.6633 161.64 62.8393 160.845 63.1913 160.152C63.554 159.459 64.0393 158.925 64.6473 158.552C65.266 158.179 65.954 157.992 66.7113 157.992C67.3726 157.992 67.9486 158.125 68.4393 158.392C68.9406 158.659 69.3406 158.995 69.6393 159.4V158.136H71.8953V167H69.6393V165.704C69.3513 166.12 68.9513 166.467 68.4393 166.744C67.938 167.011 67.3566 167.144 66.6953 167.144C65.9486 167.144 65.266 166.952 64.6473 166.568C64.0393 166.184 63.554 165.645 63.1913 164.952C62.8393 164.248 62.6633 163.443 62.6633 162.536ZM69.6393 162.568C69.6393 162.024 69.5326 161.56 69.3193 161.176C69.106 160.781 68.818 160.483 68.4553 160.28C68.0926 160.067 67.7033 159.96 67.2873 159.96C66.8713 159.96 66.4873 160.061 66.1353 160.264C65.7833 160.467 65.4953 160.765 65.2713 161.16C65.058 161.544 64.9513 162.003 64.9513 162.536C64.9513 163.069 65.058 163.539 65.2713 163.944C65.4953 164.339 65.7833 164.643 66.1353 164.856C66.498 165.069 66.882 165.176 67.2873 165.176C67.7033 165.176 68.0926 165.075 68.4553 164.872C68.818 164.659 69.106 164.36 69.3193 163.976C69.5326 163.581 69.6393 163.112 69.6393 162.568ZM79.1551 158.008C80.2111 158.008 81.0644 158.344 81.7151 159.016C82.3657 159.677 82.6911 160.605 82.6911 161.8V167H80.4511V162.104C80.4511 161.4 80.2751 160.861 79.9231 160.488C79.5711 160.104 79.0911 159.912 78.4831 159.912C77.8644 159.912 77.3737 160.104 77.0111 160.488C76.6591 160.861 76.4831 161.4 76.4831 162.104V167H74.2431V158.136H76.4831V159.24C76.7817 158.856 77.1604 158.557 77.6191 158.344C78.0884 158.12 78.6004 158.008 79.1551 158.008ZM98.1102 167.112C97.0649 167.112 96.1049 166.867 95.2302 166.376C94.3555 165.885 93.6622 165.208 93.1502 164.344C92.6382 163.469 92.3822 162.483 92.3822 161.384C92.3822 160.296 92.6382 159.32 93.1502 158.456C93.6622 157.581 94.3555 156.899 95.2302 156.408C96.1049 155.917 97.0649 155.672 98.1102 155.672C99.1662 155.672 100.126 155.917 100.99 156.408C101.865 156.899 102.553 157.581 103.054 158.456C103.566 159.32 103.822 160.296 103.822 161.384C103.822 162.483 103.566 163.469 103.054 164.344C102.553 165.208 101.865 165.885 100.99 166.376C100.116 166.867 99.1555 167.112 98.1102 167.112ZM98.1102 165.112C98.7822 165.112 99.3742 164.963 99.8862 164.664C100.398 164.355 100.798 163.917 101.086 163.352C101.374 162.787 101.518 162.131 101.518 161.384C101.518 160.637 101.374 159.987 101.086 159.432C100.798 158.867 100.398 158.435 99.8862 158.136C99.3742 157.837 98.7822 157.688 98.1102 157.688C97.4382 157.688 96.8409 157.837 96.3182 158.136C95.8062 158.435 95.4062 158.867 95.1182 159.432C94.8302 159.987 94.6862 160.637 94.6862 161.384C94.6862 162.131 94.8302 162.787 95.1182 163.352C95.4062 163.917 95.8062 164.355 96.3182 164.664C96.8409 164.963 97.4382 165.112 98.1102 165.112ZM107.889 159.512C108.177 159.043 108.55 158.675 109.009 158.408C109.478 158.141 110.011 158.008 110.609 158.008V160.36H110.017C109.313 160.36 108.779 160.525 108.417 160.856C108.065 161.187 107.889 161.763 107.889 162.584V167H105.649V158.136H107.889V159.512ZM111.701 162.536C111.701 161.64 111.877 160.845 112.229 160.152C112.592 159.459 113.083 158.925 113.701 158.552C114.32 158.179 115.008 157.992 115.765 157.992C116.341 157.992 116.891 158.12 117.413 158.376C117.936 158.621 118.352 158.952 118.661 159.368V155.16H120.933V167H118.661V165.688C118.384 166.125 117.995 166.477 117.493 166.744C116.992 167.011 116.411 167.144 115.749 167.144C115.003 167.144 114.32 166.952 113.701 166.568C113.083 166.184 112.592 165.645 112.229 164.952C111.877 164.248 111.701 163.443 111.701 162.536ZM118.677 162.568C118.677 162.024 118.571 161.56 118.357 161.176C118.144 160.781 117.856 160.483 117.493 160.28C117.131 160.067 116.741 159.96 116.325 159.96C115.909 159.96 115.525 160.061 115.173 160.264C114.821 160.467 114.533 160.765 114.309 161.16C114.096 161.544 113.989 162.003 113.989 162.536C113.989 163.069 114.096 163.539 114.309 163.944C114.533 164.339 114.821 164.643 115.173 164.856C115.536 165.069 115.92 165.176 116.325 165.176C116.741 165.176 117.131 165.075 117.493 164.872C117.856 164.659 118.144 164.36 118.357 163.976C118.571 163.581 118.677 163.112 118.677 162.568ZM131.521 162.376C131.521 162.696 131.5 162.984 131.457 163.24H124.977C125.031 163.88 125.255 164.381 125.649 164.744C126.044 165.107 126.529 165.288 127.105 165.288C127.937 165.288 128.529 164.931 128.881 164.216H131.297C131.041 165.069 130.551 165.773 129.825 166.328C129.1 166.872 128.209 167.144 127.153 167.144C126.3 167.144 125.532 166.957 124.849 166.584C124.177 166.2 123.649 165.661 123.265 164.968C122.892 164.275 122.705 163.475 122.705 162.568C122.705 161.651 122.892 160.845 123.265 160.152C123.639 159.459 124.161 158.925 124.833 158.552C125.505 158.179 126.279 157.992 127.153 157.992C127.996 157.992 128.748 158.173 129.409 158.536C130.081 158.899 130.599 159.416 130.961 160.088C131.335 160.749 131.521 161.512 131.521 162.376ZM129.201 161.736C129.191 161.16 128.983 160.701 128.577 160.36C128.172 160.008 127.676 159.832 127.089 159.832C126.535 159.832 126.065 160.003 125.681 160.344C125.308 160.675 125.079 161.139 124.993 161.736H129.201ZM135.556 159.512C135.844 159.043 136.218 158.675 136.676 158.408C137.146 158.141 137.679 158.008 138.276 158.008V160.36H137.684C136.98 160.36 136.447 160.525 136.084 160.856C135.732 161.187 135.556 161.763 135.556 162.584V167H133.316V158.136H135.556V159.512ZM143.337 167.144C142.612 167.144 141.961 167.016 141.385 166.76C140.809 166.493 140.35 166.136 140.009 165.688C139.678 165.24 139.497 164.744 139.465 164.2H141.721C141.764 164.541 141.929 164.824 142.217 165.048C142.516 165.272 142.884 165.384 143.321 165.384C143.748 165.384 144.078 165.299 144.313 165.128C144.558 164.957 144.681 164.739 144.681 164.472C144.681 164.184 144.532 163.971 144.233 163.832C143.945 163.683 143.481 163.523 142.841 163.352C142.18 163.192 141.636 163.027 141.209 162.856C140.793 162.685 140.43 162.424 140.121 162.072C139.822 161.72 139.673 161.245 139.673 160.648C139.673 160.157 139.812 159.709 140.089 159.304C140.377 158.899 140.782 158.579 141.305 158.344C141.838 158.109 142.462 157.992 143.177 157.992C144.233 157.992 145.076 158.259 145.705 158.792C146.334 159.315 146.681 160.024 146.745 160.92H144.601C144.569 160.568 144.42 160.291 144.153 160.088C143.897 159.875 143.55 159.768 143.113 159.768C142.708 159.768 142.393 159.843 142.169 159.992C141.956 160.141 141.849 160.349 141.849 160.616C141.849 160.915 141.998 161.144 142.297 161.304C142.596 161.453 143.06 161.608 143.689 161.768C144.329 161.928 144.857 162.093 145.273 162.264C145.689 162.435 146.046 162.701 146.345 163.064C146.654 163.416 146.814 163.885 146.825 164.472C146.825 164.984 146.681 165.443 146.393 165.848C146.116 166.253 145.71 166.573 145.177 166.808C144.654 167.032 144.041 167.144 143.337 167.144Z" fill="#5B5CA6"/>
<path d="M40.2446 192.084C39.6926 192.084 39.1966 191.988 38.7566 191.796C38.3246 191.596 37.9846 191.324 37.7366 190.98C37.4886 190.628 37.3606 190.224 37.3526 189.768H38.5166C38.5566 190.16 38.7166 190.492 38.9966 190.764C39.2846 191.028 39.7006 191.16 40.2446 191.16C40.7646 191.16 41.1726 191.032 41.4686 190.776C41.7726 190.512 41.9246 190.176 41.9246 189.768C41.9246 189.448 41.8366 189.188 41.6606 188.988C41.4846 188.788 41.2646 188.636 41.0006 188.532C40.7366 188.428 40.3806 188.316 39.9326 188.196C39.3806 188.052 38.9366 187.908 38.6006 187.764C38.2726 187.62 37.9886 187.396 37.7486 187.092C37.5166 186.78 37.4006 186.364 37.4006 185.844C37.4006 185.388 37.5166 184.984 37.7486 184.632C37.9806 184.28 38.3046 184.008 38.7206 183.816C39.1446 183.624 39.6286 183.528 40.1726 183.528C40.9566 183.528 41.5966 183.724 42.0926 184.116C42.5966 184.508 42.8806 185.028 42.9446 185.676H41.7446C41.7046 185.356 41.5366 185.076 41.2406 184.836C40.9446 184.588 40.5526 184.464 40.0646 184.464C39.6086 184.464 39.2366 184.584 38.9486 184.824C38.6606 185.056 38.5166 185.384 38.5166 185.808C38.5166 186.112 38.6006 186.36 38.7686 186.552C38.9446 186.744 39.1566 186.892 39.4046 186.996C39.6606 187.092 40.0166 187.204 40.4726 187.332C41.0246 187.484 41.4686 187.636 41.8046 187.788C42.1406 187.932 42.4286 188.16 42.6686 188.472C42.9086 188.776 43.0286 189.192 43.0286 189.72C43.0286 190.128 42.9206 190.512 42.7046 190.872C42.4886 191.232 42.1686 191.524 41.7446 191.748C41.3206 191.972 40.8206 192.084 40.2446 192.084ZM44.3476 188.7C44.3476 188.02 44.4836 187.428 44.7556 186.924C45.0276 186.412 45.4036 186.016 45.8836 185.736C46.3716 185.456 46.9276 185.316 47.5516 185.316C48.3596 185.316 49.0236 185.512 49.5436 185.904C50.0716 186.296 50.4196 186.84 50.5876 187.536H49.4116C49.2996 187.136 49.0796 186.82 48.7516 186.588C48.4316 186.356 48.0316 186.24 47.5516 186.24C46.9276 186.24 46.4236 186.456 46.0396 186.888C45.6556 187.312 45.4636 187.916 45.4636 188.7C45.4636 189.492 45.6556 190.104 46.0396 190.536C46.4236 190.968 46.9276 191.184 47.5516 191.184C48.0316 191.184 48.4316 191.072 48.7516 190.848C49.0716 190.624 49.2916 190.304 49.4116 189.888H50.5876C50.4116 190.56 50.0596 191.1 49.5316 191.508C49.0036 191.908 48.3436 192.108 47.5516 192.108C46.9276 192.108 46.3716 191.968 45.8836 191.688C45.4036 191.408 45.0276 191.012 44.7556 190.5C44.4836 189.988 44.3476 189.388 44.3476 188.7ZM51.7566 188.688C51.7566 188.016 51.8926 187.428 52.1646 186.924C52.4366 186.412 52.8086 186.016 53.2806 185.736C53.7606 185.456 54.2926 185.316 54.8766 185.316C55.4526 185.316 55.9526 185.44 56.3766 185.688C56.8006 185.936 57.1166 186.248 57.3246 186.624V185.424H58.4286V192H57.3246V190.776C57.1086 191.16 56.7846 191.48 56.3526 191.736C55.9286 191.984 55.4326 192.108 54.8646 192.108C54.2806 192.108 53.7526 191.964 53.2806 191.676C52.8086 191.388 52.4366 190.984 52.1646 190.464C51.8926 189.944 51.7566 189.352 51.7566 188.688ZM57.3246 188.7C57.3246 188.204 57.2246 187.772 57.0246 187.404C56.8246 187.036 56.5526 186.756 56.2086 186.564C55.8726 186.364 55.5006 186.264 55.0926 186.264C54.6846 186.264 54.3126 186.36 53.9766 186.552C53.6406 186.744 53.3726 187.024 53.1726 187.392C52.9726 187.76 52.8726 188.192 52.8726 188.688C52.8726 189.192 52.9726 189.632 53.1726 190.008C53.3726 190.376 53.6406 190.66 53.9766 190.86C54.3126 191.052 54.6846 191.148 55.0926 191.148C55.5006 191.148 55.8726 191.052 56.2086 190.86C56.5526 190.66 56.8246 190.376 57.0246 190.008C57.2246 189.632 57.3246 189.196 57.3246 188.7ZM63.598 185.304C64.398 185.304 65.046 185.548 65.542 186.036C66.038 186.516 66.286 187.212 66.286 188.124V192H65.206V188.28C65.206 187.624 65.042 187.124 64.714 186.78C64.386 186.428 63.938 186.252 63.37 186.252C62.794 186.252 62.334 186.432 61.99 186.792C61.654 187.152 61.486 187.676 61.486 188.364V192H60.394V185.424H61.486V186.36C61.702 186.024 61.994 185.764 62.362 185.58C62.738 185.396 63.15 185.304 63.598 185.304ZM77.173 185.424L73.213 195.096H72.085L73.381 191.928L70.729 185.424H71.941L74.005 190.752L76.045 185.424H77.173ZM81.2587 192.108C80.6427 192.108 80.0827 191.968 79.5787 191.688C79.0827 191.408 78.6907 191.012 78.4027 190.5C78.1227 189.98 77.9827 189.38 77.9827 188.7C77.9827 188.028 78.1267 187.436 78.4147 186.924C78.7107 186.404 79.1107 186.008 79.6147 185.736C80.1187 185.456 80.6827 185.316 81.3067 185.316C81.9307 185.316 82.4947 185.456 82.9987 185.736C83.5027 186.008 83.8987 186.4 84.1867 186.912C84.4827 187.424 84.6307 188.02 84.6307 188.7C84.6307 189.38 84.4787 189.98 84.1747 190.5C83.8787 191.012 83.4747 191.408 82.9627 191.688C82.4507 191.968 81.8827 192.108 81.2587 192.108ZM81.2587 191.148C81.6507 191.148 82.0187 191.056 82.3627 190.872C82.7067 190.688 82.9827 190.412 83.1907 190.044C83.4067 189.676 83.5147 189.228 83.5147 188.7C83.5147 188.172 83.4107 187.724 83.2027 187.356C82.9947 186.988 82.7227 186.716 82.3867 186.54C82.0507 186.356 81.6867 186.264 81.2947 186.264C80.8947 186.264 80.5267 186.356 80.1907 186.54C79.8627 186.716 79.5987 186.988 79.3987 187.356C79.1987 187.724 79.0987 188.172 79.0987 188.7C79.0987 189.236 79.1947 189.688 79.3867 190.056C79.5867 190.424 79.8507 190.7 80.1787 190.884C80.5067 191.06 80.8667 191.148 81.2587 191.148ZM92.0185 185.424V192H90.9265V191.028C90.7185 191.364 90.4265 191.628 90.0505 191.82C89.6825 192.004 89.2745 192.096 88.8265 192.096C88.3145 192.096 87.8545 191.992 87.4465 191.784C87.0385 191.568 86.7145 191.248 86.4745 190.824C86.2425 190.4 86.1265 189.884 86.1265 189.276V185.424H87.2065V189.132C87.2065 189.78 87.3705 190.28 87.6985 190.632C88.0265 190.976 88.4745 191.148 89.0425 191.148C89.6265 191.148 90.0865 190.968 90.4225 190.608C90.7585 190.248 90.9265 189.724 90.9265 189.036V185.424H92.0185ZM95.0743 186.492C95.2663 186.116 95.5383 185.824 95.8903 185.616C96.2503 185.408 96.6863 185.304 97.1983 185.304V186.432H96.9103C95.6863 186.432 95.0743 187.096 95.0743 188.424V192H93.9823V185.424H95.0743V186.492ZM104.766 192.108C104.15 192.108 103.59 191.968 103.086 191.688C102.59 191.408 102.198 191.012 101.91 190.5C101.63 189.98 101.49 189.38 101.49 188.7C101.49 188.028 101.634 187.436 101.922 186.924C102.218 186.404 102.618 186.008 103.122 185.736C103.626 185.456 104.19 185.316 104.814 185.316C105.438 185.316 106.002 185.456 106.506 185.736C107.01 186.008 107.406 186.4 107.694 186.912C107.99 187.424 108.138 188.02 108.138 188.7C108.138 189.38 107.986 189.98 107.682 190.5C107.386 191.012 106.982 191.408 106.47 191.688C105.958 191.968 105.39 192.108 104.766 192.108ZM104.766 191.148C105.158 191.148 105.526 191.056 105.87 190.872C106.214 190.688 106.49 190.412 106.698 190.044C106.914 189.676 107.022 189.228 107.022 188.7C107.022 188.172 106.918 187.724 106.71 187.356C106.502 186.988 106.23 186.716 105.894 186.54C105.558 186.356 105.194 186.264 104.802 186.264C104.402 186.264 104.034 186.356 103.698 186.54C103.37 186.716 103.106 186.988 102.906 187.356C102.706 187.724 102.606 188.172 102.606 188.7C102.606 189.236 102.702 189.688 102.894 190.056C103.094 190.424 103.358 190.7 103.686 190.884C104.014 191.06 104.374 191.148 104.766 191.148ZM110.786 186.492C110.978 186.116 111.25 185.824 111.602 185.616C111.962 185.408 112.398 185.304 112.91 185.304V186.432H112.622C111.398 186.432 110.786 187.096 110.786 188.424V192H109.694V185.424H110.786V186.492ZM113.882 188.688C113.882 188.016 114.018 187.428 114.29 186.924C114.562 186.412 114.934 186.016 115.406 185.736C115.886 185.456 116.422 185.316 117.014 185.316C117.526 185.316 118.002 185.436 118.442 185.676C118.882 185.908 119.218 186.216 119.45 186.6V183.12H120.554V192H119.45V190.764C119.234 191.156 118.914 191.48 118.49 191.736C118.066 191.984 117.57 192.108 117.002 192.108C116.418 192.108 115.886 191.964 115.406 191.676C114.934 191.388 114.562 190.984 114.29 190.464C114.018 189.944 113.882 189.352 113.882 188.688ZM119.45 188.7C119.45 188.204 119.35 187.772 119.15 187.404C118.95 187.036 118.678 186.756 118.334 186.564C117.998 186.364 117.626 186.264 117.218 186.264C116.81 186.264 116.438 186.36 116.102 186.552C115.766 186.744 115.498 187.024 115.298 187.392C115.098 187.76 114.998 188.192 114.998 188.688C114.998 189.192 115.098 189.632 115.298 190.008C115.498 190.376 115.766 190.66 116.102 190.86C116.438 191.052 116.81 191.148 117.218 191.148C117.626 191.148 117.998 191.052 118.334 190.86C118.678 190.66 118.95 190.376 119.15 190.008C119.35 189.632 119.45 189.196 119.45 188.7ZM128.52 188.46C128.52 188.668 128.508 188.888 128.484 189.12H123.228C123.268 189.768 123.488 190.276 123.888 190.644C124.296 191.004 124.788 191.184 125.364 191.184C125.836 191.184 126.228 191.076 126.54 190.86C126.86 190.636 127.084 190.34 127.212 189.972H128.388C128.212 190.604 127.86 191.12 127.332 191.52C126.804 191.912 126.148 192.108 125.364 192.108C124.74 192.108 124.18 191.968 123.684 191.688C123.196 191.408 122.812 191.012 122.532 190.5C122.252 189.98 122.112 189.38 122.112 188.7C122.112 188.02 122.248 187.424 122.52 186.912C122.792 186.4 123.172 186.008 123.66 185.736C124.156 185.456 124.724 185.316 125.364 185.316C125.988 185.316 126.54 185.452 127.02 185.724C127.5 185.996 127.868 186.372 128.124 186.852C128.388 187.324 128.52 187.86 128.52 188.46ZM127.392 188.232C127.392 187.816 127.3 187.46 127.116 187.164C126.932 186.86 126.68 186.632 126.36 186.48C126.048 186.32 125.7 186.24 125.316 186.24C124.764 186.24 124.292 186.416 123.9 186.768C123.516 187.12 123.296 187.608 123.24 188.232H127.392ZM131.173 186.492C131.365 186.116 131.637 185.824 131.989 185.616C132.349 185.408 132.785 185.304 133.297 185.304V186.432H133.009C131.785 186.432 131.173 187.096 131.173 188.424V192H130.081V185.424H131.173V186.492ZM137.006 192.108C136.502 192.108 136.05 192.024 135.65 191.856C135.25 191.68 134.934 191.44 134.702 191.136C134.47 190.824 134.342 190.468 134.318 190.068H135.446C135.478 190.396 135.63 190.664 135.902 190.872C136.182 191.08 136.546 191.184 136.994 191.184C137.41 191.184 137.738 191.092 137.978 190.908C138.218 190.724 138.338 190.492 138.338 190.212C138.338 189.924 138.21 189.712 137.954 189.576C137.698 189.432 137.302 189.292 136.766 189.156C136.278 189.028 135.878 188.9 135.566 188.772C135.262 188.636 134.998 188.44 134.774 188.184C134.558 187.92 134.45 187.576 134.45 187.152C134.45 186.816 134.55 186.508 134.75 186.228C134.95 185.948 135.234 185.728 135.602 185.568C135.97 185.4 136.39 185.316 136.862 185.316C137.59 185.316 138.178 185.5 138.626 185.868C139.074 186.236 139.314 186.74 139.346 187.38H138.254C138.23 187.036 138.09 186.76 137.834 186.552C137.586 186.344 137.25 186.24 136.826 186.24C136.434 186.24 136.122 186.324 135.89 186.492C135.658 186.66 135.542 186.88 135.542 187.152C135.542 187.368 135.61 187.548 135.746 187.692C135.89 187.828 136.066 187.94 136.274 188.028C136.49 188.108 136.786 188.2 137.162 188.304C137.634 188.432 138.018 188.56 138.314 188.688C138.61 188.808 138.862 188.992 139.07 189.24C139.286 189.488 139.398 189.812 139.406 190.212C139.406 190.572 139.306 190.896 139.106 191.184C138.906 191.472 138.622 191.7 138.254 191.868C137.894 192.028 137.478 192.108 137.006 192.108ZM144.951 184.356C144.743 184.356 144.567 184.284 144.423 184.14C144.279 183.996 144.207 183.82 144.207 183.612C144.207 183.404 144.279 183.228 144.423 183.084C144.567 182.94 144.743 182.868 144.951 182.868C145.151 182.868 145.319 182.94 145.455 183.084C145.599 183.228 145.671 183.404 145.671 183.612C145.671 183.82 145.599 183.996 145.455 184.14C145.319 184.284 145.151 184.356 144.951 184.356ZM145.479 185.424V192H144.387V185.424H145.479ZM150.664 185.304C151.464 185.304 152.112 185.548 152.608 186.036C153.104 186.516 153.352 187.212 153.352 188.124V192H152.272V188.28C152.272 187.624 152.108 187.124 151.78 186.78C151.452 186.428 151.004 186.252 150.436 186.252C149.86 186.252 149.4 186.432 149.056 186.792C148.72 187.152 148.552 187.676 148.552 188.364V192H147.46V185.424H148.552V186.36C148.768 186.024 149.06 185.764 149.428 185.58C149.804 185.396 150.216 185.304 150.664 185.304ZM78.2772 204.304C78.7892 204.304 79.2452 204.412 79.6452 204.628C80.0452 204.836 80.3612 205.152 80.5932 205.576C80.8252 206 80.9412 206.516 80.9412 207.124V211H79.8612V207.28C79.8612 206.624 79.6972 206.124 79.3692 205.78C79.0492 205.428 78.6132 205.252 78.0612 205.252C77.4932 205.252 77.0412 205.436 76.7052 205.804C76.3692 206.164 76.2012 206.688 76.2012 207.376V211H75.1212V207.28C75.1212 206.624 74.9572 206.124 74.6292 205.78C74.3092 205.428 73.8732 205.252 73.3212 205.252C72.7532 205.252 72.3012 205.436 71.9652 205.804C71.6292 206.164 71.4612 206.688 71.4612 207.376V211H70.3692V204.424H71.4612V205.372C71.6772 205.028 71.9652 204.764 72.3252 204.58C72.6932 204.396 73.0972 204.304 73.5372 204.304C74.0892 204.304 74.5772 204.428 75.0012 204.676C75.4252 204.924 75.7412 205.288 75.9492 205.768C76.1332 205.304 76.4372 204.944 76.8612 204.688C77.2852 204.432 77.7572 204.304 78.2772 204.304ZM83.4165 203.356C83.2085 203.356 83.0325 203.284 82.8885 203.14C82.7445 202.996 82.6725 202.82 82.6725 202.612C82.6725 202.404 82.7445 202.228 82.8885 202.084C83.0325 201.94 83.2085 201.868 83.4165 201.868C83.6165 201.868 83.7845 201.94 83.9205 202.084C84.0645 202.228 84.1365 202.404 84.1365 202.612C84.1365 202.82 84.0645 202.996 83.9205 203.14C83.7845 203.284 83.6165 203.356 83.4165 203.356ZM83.9445 204.424V211H82.8525V204.424H83.9445ZM89.1296 204.304C89.9296 204.304 90.5776 204.548 91.0736 205.036C91.5696 205.516 91.8176 206.212 91.8176 207.124V211H90.7376V207.28C90.7376 206.624 90.5736 206.124 90.2456 205.78C89.9176 205.428 89.4696 205.252 88.9016 205.252C88.3256 205.252 87.8656 205.432 87.5216 205.792C87.1856 206.152 87.0176 206.676 87.0176 207.364V211H85.9256V204.424H87.0176V205.36C87.2336 205.024 87.5256 204.764 87.8936 204.58C88.2696 204.396 88.6816 204.304 89.1296 204.304ZM99.5534 204.424V211H98.4614V210.028C98.2534 210.364 97.9614 210.628 97.5854 210.82C97.2174 211.004 96.8094 211.096 96.3614 211.096C95.8494 211.096 95.3894 210.992 94.9814 210.784C94.5734 210.568 94.2494 210.248 94.0094 209.824C93.7774 209.4 93.6614 208.884 93.6614 208.276V204.424H94.7414V208.132C94.7414 208.78 94.9054 209.28 95.2334 209.632C95.5614 209.976 96.0094 210.148 96.5774 210.148C97.1614 210.148 97.6214 209.968 97.9574 209.608C98.2934 209.248 98.4614 208.724 98.4614 208.036V204.424H99.5534ZM102.849 205.324V209.2C102.849 209.52 102.917 209.748 103.053 209.884C103.189 210.012 103.425 210.076 103.761 210.076H104.565V211H103.581C102.973 211 102.517 210.86 102.213 210.58C101.909 210.3 101.757 209.84 101.757 209.2V205.324H100.905V204.424H101.757V202.768H102.849V204.424H104.565V205.324H102.849ZM112.008 207.46C112.008 207.668 111.996 207.888 111.972 208.12H106.716C106.756 208.768 106.976 209.276 107.376 209.644C107.784 210.004 108.276 210.184 108.852 210.184C109.324 210.184 109.716 210.076 110.028 209.86C110.348 209.636 110.572 209.34 110.7 208.972H111.876C111.7 209.604 111.348 210.12 110.82 210.52C110.292 210.912 109.636 211.108 108.852 211.108C108.228 211.108 107.668 210.968 107.172 210.688C106.684 210.408 106.3 210.012 106.02 209.5C105.74 208.98 105.6 208.38 105.6 207.7C105.6 207.02 105.736 206.424 106.008 205.912C106.28 205.4 106.66 205.008 107.148 204.736C107.644 204.456 108.212 204.316 108.852 204.316C109.476 204.316 110.028 204.452 110.508 204.724C110.988 204.996 111.356 205.372 111.612 205.852C111.876 206.324 112.008 206.86 112.008 207.46ZM110.88 207.232C110.88 206.816 110.788 206.46 110.604 206.164C110.42 205.86 110.168 205.632 109.848 205.48C109.536 205.32 109.188 205.24 108.804 205.24C108.252 205.24 107.78 205.416 107.388 205.768C107.004 206.12 106.784 206.608 106.728 207.232H110.88ZM115.898 211.108C115.394 211.108 114.942 211.024 114.542 210.856C114.142 210.68 113.826 210.44 113.594 210.136C113.362 209.824 113.234 209.468 113.21 209.068H114.338C114.37 209.396 114.522 209.664 114.794 209.872C115.074 210.08 115.438 210.184 115.886 210.184C116.302 210.184 116.63 210.092 116.87 209.908C117.11 209.724 117.23 209.492 117.23 209.212C117.23 208.924 117.102 208.712 116.846 208.576C116.59 208.432 116.194 208.292 115.658 208.156C115.17 208.028 114.77 207.9 114.458 207.772C114.154 207.636 113.89 207.44 113.666 207.184C113.45 206.92 113.342 206.576 113.342 206.152C113.342 205.816 113.442 205.508 113.642 205.228C113.842 204.948 114.126 204.728 114.494 204.568C114.862 204.4 115.282 204.316 115.754 204.316C116.482 204.316 117.07 204.5 117.518 204.868C117.966 205.236 118.206 205.74 118.238 206.38H117.146C117.122 206.036 116.982 205.76 116.726 205.552C116.478 205.344 116.142 205.24 115.718 205.24C115.326 205.24 115.014 205.324 114.782 205.492C114.55 205.66 114.434 205.88 114.434 206.152C114.434 206.368 114.502 206.548 114.638 206.692C114.782 206.828 114.958 206.94 115.166 207.028C115.382 207.108 115.678 207.2 116.054 207.304C116.526 207.432 116.91 207.56 117.206 207.688C117.502 207.808 117.754 207.992 117.962 208.24C118.178 208.488 118.29 208.812 118.298 209.212C118.298 209.572 118.198 209.896 117.998 210.184C117.798 210.472 117.514 210.7 117.146 210.868C116.786 211.028 116.37 211.108 115.898 211.108ZM120.307 211.072C120.099 211.072 119.923 211 119.779 210.856C119.635 210.712 119.563 210.536 119.563 210.328C119.563 210.12 119.635 209.944 119.779 209.8C119.923 209.656 120.099 209.584 120.307 209.584C120.507 209.584 120.675 209.656 120.811 209.8C120.955 209.944 121.027 210.12 121.027 210.328C121.027 210.536 120.955 210.712 120.811 210.856C120.675 211 120.507 211.072 120.307 211.072Z" fill="#9B9ACA"/>
<path fill-rule="evenodd" clip-rule="evenodd" d="M92.4277 106C92.8477 106 93.1887 106.334 93.1887 106.747C93.1887 107.159 92.8487 107.493 92.4277 107.493L90.7987 107.494C89.4467 107.496 88.3467 108.576 88.3467 109.903V111.762C88.3467 112.174 88.0047 112.509 87.5847 112.509C87.1647 112.509 86.8237 112.174 86.8237 111.762V109.903C86.8237 107.753 88.6067 106.003 90.7977 106.001L92.4267 106H92.4277ZM99.6006 106H101.194C103.391 106 105.177 107.752 105.177 109.906V111.762C105.177 112.174 104.837 112.51 104.416 112.51C103.996 112.51 103.655 112.174 103.655 111.762V109.906C103.655 108.575 102.551 107.493 101.194 107.493H99.6006C99.1806 107.493 98.8396 107.159 98.8396 106.748C98.8396 106.335 99.1806 106 99.6006 106ZM98.7625 109.743H93.2385C91.9745 109.755 90.9585 110.768 90.9695 112.009V113.254C90.9725 113.399 91.0915 113.518 91.2395 113.523H100.76C100.909 113.519 101.028 113.4 101.032 113.254V112.009C101.034 111.41 100.797 110.834 100.372 110.406C99.9485 109.981 99.3675 109.743 98.7625 109.743ZM85.762 115.041H106.239C106.659 115.041 107 115.376 107 115.788C107 116.2 106.659 116.534 106.239 116.534H105.177V120.093C105.177 122.249 103.39 124 101.194 124H99.601C99.18 124 98.839 123.666 98.839 123.253C98.839 122.841 99.18 122.507 99.601 122.507H101.194C102.551 122.507 103.655 121.425 103.655 120.093V116.534H101.032V117.525C101.042 118.766 100.027 119.779 98.762 119.791H93.238C91.974 119.779 90.959 118.766 90.969 117.525V116.534H88.346V120.097C88.346 121.424 89.447 122.504 90.8 122.506L92.428 122.507C92.848 122.507 93.189 122.841 93.189 123.253C93.188 123.666 92.848 124 92.427 124L90.798 123.999C88.607 123.997 86.823 122.247 86.823 120.097V116.534H85.762C85.342 116.534 85 116.2 85 115.788C85 115.376 85.342 115.041 85.762 115.041Z" fill="#FAF8FF"/>
<g filter="url(#filter1_b_9_8)">
<rect x="101" y="309" width="262" height="140" rx="20" fill="#FAF8FF"/>
</g>
<path d="M124.422 336.832V348H122.182V340.736L119.19 348H117.494L114.486 340.736V348H112.246V336.832H114.79L118.342 345.136L121.894 336.832H124.422ZM130.732 348.144C129.879 348.144 129.111 347.957 128.428 347.584C127.746 347.2 127.207 346.661 126.812 345.968C126.428 345.275 126.236 344.475 126.236 343.568C126.236 342.661 126.434 341.861 126.828 341.168C127.234 340.475 127.783 339.941 128.476 339.568C129.17 339.184 129.943 338.992 130.796 338.992C131.65 338.992 132.423 339.184 133.116 339.568C133.81 339.941 134.354 340.475 134.748 341.168C135.154 341.861 135.356 342.661 135.356 343.568C135.356 344.475 135.148 345.275 134.732 345.968C134.327 346.661 133.772 347.2 133.068 347.584C132.375 347.957 131.596 348.144 130.732 348.144ZM130.732 346.192C131.138 346.192 131.516 346.096 131.868 345.904C132.231 345.701 132.519 345.403 132.732 345.008C132.946 344.613 133.052 344.133 133.052 343.568C133.052 342.725 132.828 342.08 132.38 341.632C131.943 341.173 131.404 340.944 130.764 340.944C130.124 340.944 129.586 341.173 129.148 341.632C128.722 342.08 128.508 342.725 128.508 343.568C128.508 344.411 128.716 345.061 129.132 345.52C129.559 345.968 130.092 346.192 130.732 346.192ZM139.399 340.512C139.687 340.043 140.061 339.675 140.519 339.408C140.989 339.141 141.522 339.008 142.119 339.008V341.36H141.527C140.823 341.36 140.29 341.525 139.927 341.856C139.575 342.187 139.399 342.763 139.399 343.584V348H137.159V339.136H139.399V340.512ZM152.028 343.376C152.028 343.696 152.007 343.984 151.964 344.24H145.484C145.537 344.88 145.761 345.381 146.156 345.744C146.551 346.107 147.036 346.288 147.612 346.288C148.444 346.288 149.036 345.931 149.388 345.216H151.804C151.548 346.069 151.057 346.773 150.332 347.328C149.607 347.872 148.716 348.144 147.66 348.144C146.807 348.144 146.039 347.957 145.356 347.584C144.684 347.2 144.156 346.661 143.772 345.968C143.399 345.275 143.212 344.475 143.212 343.568C143.212 342.651 143.399 341.845 143.772 341.152C144.145 340.459 144.668 339.925 145.34 339.552C146.012 339.179 146.785 338.992 147.66 338.992C148.503 338.992 149.255 339.173 149.916 339.536C150.588 339.899 151.105 340.416 151.468 341.088C151.841 341.749 152.028 342.512 152.028 343.376ZM149.708 342.736C149.697 342.16 149.489 341.701 149.084 341.36C148.679 341.008 148.183 340.832 147.596 340.832C147.041 340.832 146.572 341.003 146.188 341.344C145.815 341.675 145.585 342.139 145.5 342.736H149.708ZM164.692 336.832V338.64H160.036V341.504H163.604V343.28H160.036V348H157.796V336.832H164.692ZM174.68 343.376C174.68 343.696 174.659 343.984 174.616 344.24H168.136C168.189 344.88 168.413 345.381 168.808 345.744C169.203 346.107 169.688 346.288 170.264 346.288C171.096 346.288 171.688 345.931 172.04 345.216H174.456C174.2 346.069 173.709 346.773 172.984 347.328C172.259 347.872 171.368 348.144 170.312 348.144C169.459 348.144 168.691 347.957 168.008 347.584C167.336 347.2 166.808 346.661 166.424 345.968C166.051 345.275 165.864 344.475 165.864 343.568C165.864 342.651 166.051 341.845 166.424 341.152C166.797 340.459 167.32 339.925 167.992 339.552C168.664 339.179 169.437 338.992 170.312 338.992C171.155 338.992 171.907 339.173 172.568 339.536C173.24 339.899 173.757 340.416 174.12 341.088C174.493 341.749 174.68 342.512 174.68 343.376ZM172.36 342.736C172.349 342.16 172.141 341.701 171.736 341.36C171.331 341.008 170.835 340.832 170.248 340.832C169.693 340.832 169.224 341.003 168.84 341.344C168.467 341.675 168.237 342.139 168.152 342.736H172.36ZM175.899 343.536C175.899 342.64 176.075 341.845 176.427 341.152C176.79 340.459 177.275 339.925 177.883 339.552C178.502 339.179 179.19 338.992 179.947 338.992C180.608 338.992 181.184 339.125 181.675 339.392C182.176 339.659 182.576 339.995 182.875 340.4V339.136H185.131V348H182.875V346.704C182.587 347.12 182.187 347.467 181.675 347.744C181.174 348.011 180.592 348.144 179.931 348.144C179.184 348.144 178.502 347.952 177.883 347.568C177.275 347.184 176.79 346.645 176.427 345.952C176.075 345.248 175.899 344.443 175.899 343.536ZM182.875 343.568C182.875 343.024 182.768 342.56 182.555 342.176C182.342 341.781 182.054 341.483 181.691 341.28C181.328 341.067 180.939 340.96 180.523 340.96C180.107 340.96 179.723 341.061 179.371 341.264C179.019 341.467 178.731 341.765 178.507 342.16C178.294 342.544 178.187 343.003 178.187 343.536C178.187 344.069 178.294 344.539 178.507 344.944C178.731 345.339 179.019 345.643 179.371 345.856C179.734 346.069 180.118 346.176 180.523 346.176C180.939 346.176 181.328 346.075 181.691 345.872C182.054 345.659 182.342 345.36 182.555 344.976C182.768 344.581 182.875 344.112 182.875 343.568ZM190.087 340.976V345.264C190.087 345.563 190.156 345.781 190.295 345.92C190.444 346.048 190.689 346.112 191.031 346.112H192.071V348H190.663C188.775 348 187.831 347.083 187.831 345.248V340.976H186.775V339.136H187.831V336.944H190.087V339.136H192.071V340.976H190.087ZM202.21 339.136V348H199.954V346.88C199.666 347.264 199.287 347.568 198.818 347.792C198.359 348.005 197.858 348.112 197.314 348.112C196.62 348.112 196.007 347.968 195.474 347.68C194.94 347.381 194.519 346.949 194.21 346.384C193.911 345.808 193.762 345.125 193.762 344.336V339.136H196.002V344.016C196.002 344.72 196.178 345.264 196.53 345.648C196.882 346.021 197.362 346.208 197.97 346.208C198.588 346.208 199.074 346.021 199.426 345.648C199.778 345.264 199.954 344.72 199.954 344.016V339.136H202.21ZM206.82 340.512C207.108 340.043 207.481 339.675 207.94 339.408C208.409 339.141 208.943 339.008 209.54 339.008V341.36H208.948C208.244 341.36 207.711 341.525 207.348 341.856C206.996 342.187 206.82 342.763 206.82 343.584V348H204.58V339.136H206.82V340.512ZM219.449 343.376C219.449 343.696 219.427 343.984 219.385 344.24H212.905C212.958 344.88 213.182 345.381 213.577 345.744C213.971 346.107 214.457 346.288 215.033 346.288C215.865 346.288 216.457 345.931 216.809 345.216H219.225C218.969 346.069 218.478 346.773 217.753 347.328C217.027 347.872 216.137 348.144 215.081 348.144C214.227 348.144 213.459 347.957 212.777 347.584C212.105 347.2 211.577 346.661 211.193 345.968C210.819 345.275 210.633 344.475 210.633 343.568C210.633 342.651 210.819 341.845 211.193 341.152C211.566 340.459 212.089 339.925 212.761 339.552C213.433 339.179 214.206 338.992 215.081 338.992C215.923 338.992 216.675 339.173 217.337 339.536C218.009 339.899 218.526 340.416 218.889 341.088C219.262 341.749 219.449 342.512 219.449 343.376ZM217.129 342.736C217.118 342.16 216.91 341.701 216.505 341.36C216.099 341.008 215.603 340.832 215.017 340.832C214.462 340.832 213.993 341.003 213.609 341.344C213.235 341.675 213.006 342.139 212.921 342.736H217.129ZM224.636 348.144C223.91 348.144 223.26 348.016 222.684 347.76C222.108 347.493 221.649 347.136 221.308 346.688C220.977 346.24 220.796 345.744 220.764 345.2H223.02C223.062 345.541 223.228 345.824 223.516 346.048C223.814 346.272 224.182 346.384 224.62 346.384C225.046 346.384 225.377 346.299 225.612 346.128C225.857 345.957 225.98 345.739 225.98 345.472C225.98 345.184 225.83 344.971 225.532 344.832C225.244 344.683 224.78 344.523 224.14 344.352C223.478 344.192 222.934 344.027 222.508 343.856C222.092 343.685 221.729 343.424 221.42 343.072C221.121 342.72 220.972 342.245 220.972 341.648C220.972 341.157 221.11 340.709 221.388 340.304C221.676 339.899 222.081 339.579 222.604 339.344C223.137 339.109 223.761 338.992 224.476 338.992C225.532 338.992 226.374 339.259 227.004 339.792C227.633 340.315 227.98 341.024 228.044 341.92H225.9C225.868 341.568 225.718 341.291 225.452 341.088C225.196 340.875 224.849 340.768 224.412 340.768C224.006 340.768 223.692 340.843 223.468 340.992C223.254 341.141 223.148 341.349 223.148 341.616C223.148 341.915 223.297 342.144 223.596 342.304C223.894 342.453 224.358 342.608 224.988 342.768C225.628 342.928 226.156 343.093 226.572 343.264C226.988 343.435 227.345 343.701 227.644 344.064C227.953 344.416 228.113 344.885 228.124 345.472C228.124 345.984 227.98 346.443 227.692 346.848C227.414 347.253 227.009 347.573 226.476 347.808C225.953 348.032 225.34 348.144 224.636 348.144Z" fill="#5B5CA6"/>
<rect x="121" y="371" width="48" height="48" rx="10" fill="url(#paint0_linear_9_8)"/>
<rect x="121" y="371" width="48" height="48" rx="10" fill="white"/>
<rect x="179" y="371" width="48" height="48" rx="10" fill="url(#paint1_linear_9_8)"/>
<rect x="179" y="371" width="48" height="48" rx="10" fill="white"/>
<rect x="237" y="371" width="48" height="48" rx="10" fill="url(#paint2_linear_9_8)"/>
<rect x="237" y="371" width="48" height="48" rx="10" fill="white"/>
<rect x="295" y="371" width="48" height="48" rx="10" fill="url(#paint3_linear_9_8)"/>
<rect x="295" y="371" width="48" height="48" rx="10" fill="white"/>
<path d="M257 78C257 59.1438 257 49.7157 262.858 43.8579C268.716 38 278.144 38 297 38H473C491.856 38 501.284 38 507.142 43.8579C513 49.7157 513 59.1438 513 78V236C513 254.856 513 264.284 507.142 270.142C501.284 276 491.856 276 473 276H297C278.144 276 268.716 276 262.858 270.142C257 264.284 257 254.856 257 236V78Z" fill="#FAF8FF"/>
<rect x="342" y="235" width="28" height="21" rx="5" fill="#5B5CA6"/>
<path d="M353.84 242.08V249H352.93V243.84L350.63 249H349.99L347.68 243.83V249H346.77V242.08H347.75L350.31 247.8L352.87 242.08H353.84ZM355.043 246.24C355.043 245.68 355.157 245.19 355.383 244.77C355.61 244.343 355.92 244.013 356.313 243.78C356.713 243.547 357.157 243.43 357.643 243.43C358.123 243.43 358.54 243.533 358.893 243.74C359.247 243.947 359.51 244.207 359.683 244.52V243.52H360.603V249H359.683V247.98C359.503 248.3 359.233 248.567 358.873 248.78C358.52 248.987 358.107 249.09 357.633 249.09C357.147 249.09 356.707 248.97 356.313 248.73C355.92 248.49 355.61 248.153 355.383 247.72C355.157 247.287 355.043 246.793 355.043 246.24ZM359.683 246.25C359.683 245.837 359.6 245.477 359.433 245.17C359.267 244.863 359.04 244.63 358.753 244.47C358.473 244.303 358.163 244.22 357.823 244.22C357.483 244.22 357.173 244.3 356.893 244.46C356.613 244.62 356.39 244.853 356.223 245.16C356.057 245.467 355.973 245.827 355.973 246.24C355.973 246.66 356.057 247.027 356.223 247.34C356.39 247.647 356.613 247.883 356.893 248.05C357.173 248.21 357.483 248.29 357.823 248.29C358.163 248.29 358.473 248.21 358.753 248.05C359.04 247.883 359.267 247.647 359.433 247.34C359.6 247.027 359.683 246.663 359.683 246.25ZM363.051 244.41C363.211 244.097 363.438 243.853 363.731 243.68C364.031 243.507 364.394 243.42 364.821 243.42V244.36H364.581C363.561 244.36 363.051 244.913 363.051 246.02V249H362.141V243.52H363.051V244.41Z" fill="#FAF8FF"/>
<path d="M291.28 242.03V247.18C291.28 247.753 291.103 248.213 290.75 248.56C290.397 248.9 289.93 249.07 289.35 249.07C288.763 249.07 288.293 248.897 287.94 248.55C287.587 248.197 287.41 247.717 287.41 247.11H288.32C288.327 247.45 288.413 247.727 288.58 247.94C288.753 248.153 289.01 248.26 289.35 248.26C289.69 248.26 289.943 248.16 290.11 247.96C290.277 247.753 290.36 247.493 290.36 247.18V242.03H291.28ZM292.733 246.24C292.733 245.68 292.846 245.19 293.073 244.77C293.299 244.343 293.609 244.013 294.003 243.78C294.403 243.547 294.846 243.43 295.333 243.43C295.813 243.43 296.229 243.533 296.583 243.74C296.936 243.947 297.199 244.207 297.373 244.52V243.52H298.293V249H297.373V247.98C297.193 248.3 296.923 248.567 296.563 248.78C296.209 248.987 295.796 249.09 295.323 249.09C294.836 249.09 294.396 248.97 294.003 248.73C293.609 248.49 293.299 248.153 293.073 247.72C292.846 247.287 292.733 246.793 292.733 246.24ZM297.373 246.25C297.373 245.837 297.289 245.477 297.123 245.17C296.956 244.863 296.729 244.63 296.443 244.47C296.163 244.303 295.853 244.22 295.513 244.22C295.173 244.22 294.863 244.3 294.583 244.46C294.303 244.62 294.079 244.853 293.913 245.16C293.746 245.467 293.663 245.827 293.663 246.24C293.663 246.66 293.746 247.027 293.913 247.34C294.079 247.647 294.303 247.883 294.583 248.05C294.863 248.21 295.173 248.29 295.513 248.29C295.853 248.29 296.163 248.21 296.443 248.05C296.729 247.883 296.956 247.647 297.123 247.34C297.289 247.027 297.373 246.663 297.373 246.25ZM302.501 243.42C303.167 243.42 303.707 243.623 304.121 244.03C304.534 244.43 304.741 245.01 304.741 245.77V249H303.841V245.9C303.841 245.353 303.704 244.937 303.431 244.65C303.157 244.357 302.784 244.21 302.311 244.21C301.831 244.21 301.447 244.36 301.161 244.66C300.881 244.96 300.741 245.397 300.741 245.97V249H299.831V243.52H300.741V244.3C300.921 244.02 301.164 243.803 301.471 243.65C301.784 243.497 302.127 243.42 302.501 243.42Z" fill="#9B9ACA"/>
<path d="M321.71 242.03V242.77H318.68V245.12H321.14V245.86H318.68V249H317.77V242.03H321.71ZM327.809 246.05C327.809 246.223 327.799 246.407 327.779 246.6H323.399C323.432 247.14 323.616 247.563 323.949 247.87C324.289 248.17 324.699 248.32 325.179 248.32C325.572 248.32 325.899 248.23 326.159 248.05C326.426 247.863 326.612 247.617 326.719 247.31H327.699C327.552 247.837 327.259 248.267 326.819 248.6C326.379 248.927 325.832 249.09 325.179 249.09C324.659 249.09 324.192 248.973 323.779 248.74C323.372 248.507 323.052 248.177 322.819 247.75C322.586 247.317 322.469 246.817 322.469 246.25C322.469 245.683 322.582 245.187 322.809 244.76C323.036 244.333 323.352 244.007 323.759 243.78C324.172 243.547 324.646 243.43 325.179 243.43C325.699 243.43 326.159 243.543 326.559 243.77C326.959 243.997 327.266 244.31 327.479 244.71C327.699 245.103 327.809 245.55 327.809 246.05ZM326.869 245.86C326.869 245.513 326.792 245.217 326.639 244.97C326.486 244.717 326.276 244.527 326.009 244.4C325.749 244.267 325.459 244.2 325.139 244.2C324.679 244.2 324.286 244.347 323.959 244.64C323.639 244.933 323.456 245.34 323.409 245.86H326.869ZM329.92 244.54C330.107 244.213 330.38 243.947 330.74 243.74C331.1 243.533 331.51 243.43 331.97 243.43C332.464 243.43 332.907 243.547 333.3 243.78C333.694 244.013 334.004 244.343 334.23 244.77C334.457 245.19 334.57 245.68 334.57 246.24C334.57 246.793 334.457 247.287 334.23 247.72C334.004 248.153 333.69 248.49 333.29 248.73C332.897 248.97 332.457 249.09 331.97 249.09C331.497 249.09 331.08 248.987 330.72 248.78C330.367 248.573 330.1 248.31 329.92 247.99V249H329.01V241.6H329.92V244.54ZM333.64 246.24C333.64 245.827 333.557 245.467 333.39 245.16C333.224 244.853 332.997 244.62 332.71 244.46C332.43 244.3 332.12 244.22 331.78 244.22C331.447 244.22 331.137 244.303 330.85 244.47C330.57 244.63 330.344 244.867 330.17 245.18C330.004 245.487 329.92 245.843 329.92 246.25C329.92 246.663 330.004 247.027 330.17 247.34C330.344 247.647 330.57 247.883 330.85 248.05C331.137 248.21 331.447 248.29 331.78 248.29C332.12 248.29 332.43 248.21 332.71 248.05C332.997 247.883 333.224 247.647 333.39 247.34C333.557 247.027 333.64 246.66 333.64 246.24Z" fill="#9B9ACA"/>
<path d="M381.89 247.45H378.85L378.29 249H377.33L379.85 242.07H380.9L383.41 249H382.45L381.89 247.45ZM381.63 246.71L380.37 243.19L379.11 246.71H381.63ZM385.418 244.53C385.598 244.217 385.865 243.957 386.218 243.75C386.578 243.537 386.995 243.43 387.468 243.43C387.955 243.43 388.395 243.547 388.788 243.78C389.188 244.013 389.502 244.343 389.728 244.77C389.955 245.19 390.068 245.68 390.068 246.24C390.068 246.793 389.955 247.287 389.728 247.72C389.502 248.153 389.188 248.49 388.788 248.73C388.395 248.97 387.955 249.09 387.468 249.09C387.002 249.09 386.588 248.987 386.228 248.78C385.875 248.567 385.605 248.303 385.418 247.99V251.6H384.508V243.52H385.418V244.53ZM389.138 246.24C389.138 245.827 389.055 245.467 388.888 245.16C388.722 244.853 388.495 244.62 388.208 244.46C387.928 244.3 387.618 244.22 387.278 244.22C386.945 244.22 386.635 244.303 386.348 244.47C386.068 244.63 385.842 244.867 385.668 245.18C385.502 245.487 385.418 245.843 385.418 246.25C385.418 246.663 385.502 247.027 385.668 247.34C385.842 247.647 386.068 247.883 386.348 248.05C386.635 248.21 386.945 248.29 387.278 248.29C387.618 248.29 387.928 248.21 388.208 248.05C388.495 247.883 388.722 247.647 388.888 247.34C389.055 247.027 389.138 246.66 389.138 246.24ZM392.176 244.41C392.336 244.097 392.563 243.853 392.856 243.68C393.156 243.507 393.519 243.42 393.946 243.42V244.36H393.706C392.686 244.36 392.176 244.913 392.176 246.02V249H391.266V243.52H392.176V244.41Z" fill="#9B9ACA"/>
<path d="M412.84 242.08V249H411.93V243.84L409.63 249H408.99L406.68 243.83V249H405.77V242.08H406.75L409.31 247.8L411.87 242.08H412.84ZM414.043 246.24C414.043 245.68 414.157 245.19 414.383 244.77C414.61 244.343 414.92 244.013 415.313 243.78C415.713 243.547 416.157 243.43 416.643 243.43C417.123 243.43 417.54 243.533 417.893 243.74C418.247 243.947 418.51 244.207 418.683 244.52V243.52H419.603V249H418.683V247.98C418.503 248.3 418.233 248.567 417.873 248.78C417.52 248.987 417.107 249.09 416.633 249.09C416.147 249.09 415.707 248.97 415.313 248.73C414.92 248.49 414.61 248.153 414.383 247.72C414.157 247.287 414.043 246.793 414.043 246.24ZM418.683 246.25C418.683 245.837 418.6 245.477 418.433 245.17C418.267 244.863 418.04 244.63 417.753 244.47C417.473 244.303 417.163 244.22 416.823 244.22C416.483 244.22 416.173 244.3 415.893 244.46C415.613 244.62 415.39 244.853 415.223 245.16C415.057 245.467 414.973 245.827 414.973 246.24C414.973 246.66 415.057 247.027 415.223 247.34C415.39 247.647 415.613 247.883 415.893 248.05C416.173 248.21 416.483 248.29 416.823 248.29C417.163 248.29 417.473 248.21 417.753 248.05C418.04 247.883 418.267 247.647 418.433 247.34C418.6 247.027 418.683 246.663 418.683 246.25ZM425.861 243.52L422.561 251.58H421.621L422.701 248.94L420.491 243.52H421.501L423.221 247.96L424.921 243.52H425.861Z" fill="#9B9ACA"/>
<path d="M442.28 242.03V247.18C442.28 247.753 442.103 248.213 441.75 248.56C441.397 248.9 440.93 249.07 440.35 249.07C439.763 249.07 439.293 248.897 438.94 248.55C438.587 248.197 438.41 247.717 438.41 247.11H439.32C439.327 247.45 439.413 247.727 439.58 247.94C439.753 248.153 440.01 248.26 440.35 248.26C440.69 248.26 440.943 248.16 441.11 247.96C441.277 247.753 441.36 247.493 441.36 247.18V242.03H442.28ZM448.933 243.52V249H448.023V248.19C447.849 248.47 447.606 248.69 447.293 248.85C446.986 249.003 446.646 249.08 446.273 249.08C445.846 249.08 445.463 248.993 445.123 248.82C444.783 248.64 444.513 248.373 444.313 248.02C444.119 247.667 444.023 247.237 444.023 246.73V243.52H444.923V246.61C444.923 247.15 445.059 247.567 445.333 247.86C445.606 248.147 445.979 248.29 446.453 248.29C446.939 248.29 447.323 248.14 447.603 247.84C447.883 247.54 448.023 247.103 448.023 246.53V243.52H448.933ZM453.139 243.42C453.806 243.42 454.346 243.623 454.759 244.03C455.173 244.43 455.379 245.01 455.379 245.77V249H454.479V245.9C454.479 245.353 454.343 244.937 454.069 244.65C453.796 244.357 453.423 244.21 452.949 244.21C452.469 244.21 452.086 244.36 451.799 244.66C451.519 244.96 451.379 245.397 451.379 245.97V249H450.469V243.52H451.379V244.3C451.559 244.02 451.803 243.803 452.109 243.65C452.423 243.497 452.766 243.42 453.139 243.42Z" fill="#9B9ACA"/>
<path d="M473.28 242.03V247.18C473.28 247.753 473.103 248.213 472.75 248.56C472.397 248.9 471.93 249.07 471.35 249.07C470.763 249.07 470.293 248.897 469.94 248.55C469.587 248.197 469.41 247.717 469.41 247.11H470.32C470.327 247.45 470.413 247.727 470.58 247.94C470.753 248.153 471.01 248.26 471.35 248.26C471.69 248.26 471.943 248.16 472.11 247.96C472.277 247.753 472.36 247.493 472.36 247.18V242.03H473.28ZM479.933 243.52V249H479.023V248.19C478.849 248.47 478.606 248.69 478.293 248.85C477.986 249.003 477.646 249.08 477.273 249.08C476.846 249.08 476.463 248.993 476.123 248.82C475.783 248.64 475.513 248.373 475.313 248.02C475.119 247.667 475.023 247.237 475.023 246.73V243.52H475.923V246.61C475.923 247.15 476.059 247.567 476.333 247.86C476.606 248.147 476.979 248.29 477.453 248.29C477.939 248.29 478.323 248.14 478.603 247.84C478.883 247.54 479.023 247.103 479.023 246.53V243.52H479.933ZM482.379 241.6V249H481.469V241.6H482.379Z" fill="#9B9ACA"/>
<path d="M277 148.408C280.796 148.408 283.073 147.49 286.721 148.408C293.093 150.01 292.602 156.673 298.729 158.888C304.303 160.903 308.329 158.061 314.168 159.387C327.313 162.373 326.039 177.89 339.327 180.348C344.57 181.318 347.851 179.214 353.051 180.348C364.08 182.755 362.761 201.209 373.636 198.315C378.78 196.946 378.884 191.957 383.928 190.33C396.373 186.315 395.656 213.638 408.516 210.792C416.017 209.131 415.459 200.922 422.811 198.814C428.115 197.293 431.572 199.451 437.106 198.814C462.469 195.896 458.491 160.635 483.995 158.888C487.111 158.675 492 158.888 492 158.888" stroke="#5B5CA6" stroke-opacity="0.6"/>
<path d="M353 180.057C364.022 182.487 362.704 201.116 373.571 198.194C378.712 196.813 378.816 191.776 383.857 190.134C396.294 186.081 395.577 213.663 408.429 210.79C415.925 209.113 415.367 200.827 422.714 198.698C428.014 197.163 431.469 199.341 437 198.698C450.164 197.168 455.419 186.831 461 177" stroke="#5B5CA6" stroke-width="2" stroke-linecap="round"/>
<path d="M282.064 103.312C282.464 103.328 282.848 103.38 283.216 103.468C283.584 103.548 283.916 103.664 284.212 103.816L283.78 104.728C283.54 104.616 283.276 104.516 282.988 104.428C282.708 104.34 282.4 104.288 282.064 104.272V111.172C282.392 111.156 282.704 111.12 283 111.064C283.296 111 283.588 110.924 283.876 110.836V111.772C283.604 111.876 283.324 111.952 283.036 112C282.756 112.056 282.432 112.092 282.064 112.108V112.96H281.296V112.108C280.504 112.052 279.844 111.84 279.316 111.472C278.788 111.096 278.392 110.588 278.128 109.948C277.864 109.308 277.732 108.56 277.732 107.704C277.732 106.904 277.868 106.192 278.14 105.568C278.42 104.936 278.824 104.428 279.352 104.044C279.88 103.652 280.528 103.42 281.296 103.348V102.892H282.064V103.312ZM281.296 104.296C280.792 104.376 280.36 104.564 280 104.86C279.64 105.156 279.36 105.548 279.16 106.036C278.968 106.516 278.872 107.076 278.872 107.716C278.872 108.356 278.96 108.92 279.136 109.408C279.32 109.896 279.592 110.288 279.952 110.584C280.312 110.88 280.76 111.064 281.296 111.136V104.296ZM289.175 110.14C289.943 109.476 290.547 108.932 290.987 108.508C291.435 108.076 291.807 107.628 292.103 107.164C292.399 106.7 292.547 106.236 292.547 105.772C292.547 105.292 292.431 104.916 292.199 104.644C291.975 104.372 291.619 104.236 291.131 104.236C290.659 104.236 290.291 104.388 290.027 104.692C289.771 104.988 289.635 105.388 289.619 105.892H288.299C288.323 104.98 288.595 104.284 289.115 103.804C289.643 103.316 290.311 103.072 291.119 103.072C291.991 103.072 292.671 103.312 293.159 103.792C293.655 104.272 293.903 104.912 293.903 105.712C293.903 106.288 293.755 106.844 293.459 107.38C293.171 107.908 292.823 108.384 292.415 108.808C292.015 109.224 291.503 109.708 290.879 110.26L290.339 110.74H294.143V111.88H288.311V110.884L289.175 110.14ZM297.025 110.356L295.573 113.668H294.685L295.537 110.356H297.025ZM298.016 105.412C298.064 104.668 298.348 104.088 298.868 103.672C299.396 103.256 300.068 103.048 300.884 103.048C301.444 103.048 301.928 103.148 302.336 103.348C302.744 103.548 303.052 103.82 303.26 104.164C303.468 104.508 303.572 104.896 303.572 105.328C303.572 105.824 303.44 106.248 303.176 106.6C302.912 106.952 302.596 107.188 302.228 107.308V107.356C302.7 107.5 303.068 107.764 303.332 108.148C303.596 108.524 303.728 109.008 303.728 109.6C303.728 110.072 303.62 110.492 303.404 110.86C303.188 111.228 302.868 111.52 302.444 111.736C302.02 111.944 301.512 112.048 300.92 112.048C300.056 112.048 299.344 111.828 298.784 111.388C298.232 110.94 297.936 110.3 297.896 109.468H299.216C299.248 109.892 299.412 110.24 299.708 110.512C300.004 110.776 300.404 110.908 300.908 110.908C301.396 110.908 301.772 110.776 302.036 110.512C302.3 110.24 302.432 109.892 302.432 109.468C302.432 108.908 302.252 108.512 301.892 108.28C301.54 108.04 300.996 107.92 300.26 107.92H299.948V106.792H300.272C300.92 106.784 301.412 106.676 301.748 106.468C302.092 106.26 302.264 105.932 302.264 105.484C302.264 105.1 302.14 104.796 301.892 104.572C301.644 104.34 301.292 104.224 300.836 104.224C300.388 104.224 300.04 104.34 299.792 104.572C299.544 104.796 299.396 105.076 299.348 105.412H298.016ZM305.141 105.412C305.189 104.668 305.473 104.088 305.993 103.672C306.521 103.256 307.193 103.048 308.009 103.048C308.569 103.048 309.053 103.148 309.461 103.348C309.869 103.548 310.177 103.82 310.385 104.164C310.593 104.508 310.697 104.896 310.697 105.328C310.697 105.824 310.565 106.248 310.301 106.6C310.037 106.952 309.721 107.188 309.353 107.308V107.356C309.825 107.5 310.193 107.764 310.457 108.148C310.721 108.524 310.853 109.008 310.853 109.6C310.853 110.072 310.745 110.492 310.529 110.86C310.313 111.228 309.993 111.52 309.569 111.736C309.145 111.944 308.637 112.048 308.045 112.048C307.181 112.048 306.469 111.828 305.909 111.388C305.357 110.94 305.061 110.3 305.021 109.468H306.341C306.373 109.892 306.537 110.24 306.833 110.512C307.129 110.776 307.529 110.908 308.033 110.908C308.521 110.908 308.897 110.776 309.161 110.512C309.425 110.24 309.557 109.892 309.557 109.468C309.557 108.908 309.377 108.512 309.017 108.28C308.665 108.04 308.121 107.92 307.385 107.92H307.073V106.792H307.397C308.045 106.784 308.537 106.676 308.873 106.468C309.217 106.26 309.389 105.932 309.389 105.484C309.389 105.1 309.265 104.796 309.017 104.572C308.769 104.34 308.417 104.224 307.961 104.224C307.513 104.224 307.165 104.34 306.917 104.572C306.669 104.796 306.521 105.076 306.473 105.412H305.141ZM312.122 110.176V109.144L316.154 103.36H317.81V108.988H318.926V110.176H317.81V112H316.466V110.176H312.122ZM316.526 104.752L313.694 108.988H316.526V104.752ZM321.74 110.356L320.288 113.668H319.4L320.252 110.356H321.74ZM327.459 105.28C327.371 104.912 327.211 104.636 326.979 104.452C326.747 104.268 326.423 104.176 326.007 104.176C325.375 104.176 324.903 104.42 324.591 104.908C324.279 105.388 324.115 106.188 324.099 107.308C324.307 106.956 324.611 106.684 325.011 106.492C325.411 106.3 325.843 106.204 326.307 106.204C326.835 106.204 327.299 106.32 327.699 106.552C328.107 106.776 328.423 107.104 328.647 107.536C328.879 107.968 328.995 108.484 328.995 109.084C328.995 109.644 328.883 110.144 328.659 110.584C328.443 111.024 328.119 111.372 327.687 111.628C327.255 111.876 326.735 112 326.127 112C325.303 112 324.655 111.82 324.183 111.46C323.719 111.092 323.391 110.576 323.199 109.912C323.015 109.248 322.923 108.42 322.923 107.428C322.923 104.5 323.955 103.036 326.019 103.036C326.819 103.036 327.447 103.252 327.903 103.684C328.367 104.116 328.639 104.648 328.719 105.28H327.459ZM326.007 107.356C325.519 107.356 325.103 107.504 324.759 107.8C324.423 108.088 324.255 108.508 324.255 109.06C324.255 109.612 324.411 110.052 324.723 110.38C325.043 110.7 325.487 110.86 326.055 110.86C326.559 110.86 326.955 110.704 327.243 110.392C327.539 110.08 327.687 109.664 327.687 109.144C327.687 108.6 327.543 108.168 327.255 107.848C326.975 107.52 326.559 107.356 326.007 107.356ZM335.998 104.308L332.662 112H331.282L334.654 104.452H330.214V103.288H335.998V104.308ZM278.512 118.727V125H277.693V118.727H278.512ZM282.311 119.978C282.911 119.978 283.397 120.161 283.769 120.527C284.141 120.887 284.327 121.409 284.327 122.093V125H283.517V122.21C283.517 121.718 283.394 121.343 283.148 121.085C282.902 120.821 282.566 120.689 282.14 120.689C281.708 120.689 281.363 120.824 281.105 121.094C280.853 121.364 280.727 121.757 280.727 122.273V125H279.908V120.068H280.727V120.77C280.889 120.518 281.108 120.323 281.384 120.185C281.666 120.047 281.975 119.978 282.311 119.978ZM285.359 122.525C285.359 122.015 285.461 121.571 285.665 121.193C285.869 120.809 286.151 120.512 286.511 120.302C286.877 120.092 287.294 119.987 287.762 119.987C288.368 119.987 288.866 120.134 289.256 120.428C289.652 120.722 289.913 121.13 290.039 121.652H289.157C289.073 121.352 288.908 121.115 288.662 120.941C288.422 120.767 288.122 120.68 287.762 120.68C287.294 120.68 286.916 120.842 286.628 121.166C286.34 121.484 286.196 121.937 286.196 122.525C286.196 123.119 286.34 123.578 286.628 123.902C286.916 124.226 287.294 124.388 287.762 124.388C288.122 124.388 288.422 124.304 288.662 124.136C288.902 123.968 289.067 123.728 289.157 123.416H290.039C289.907 123.92 289.643 124.325 289.247 124.631C288.851 124.931 288.356 125.081 287.762 125.081C287.294 125.081 286.877 124.976 286.511 124.766C286.151 124.556 285.869 124.259 285.665 123.875C285.461 123.491 285.359 123.041 285.359 122.525ZM293.282 125.081C292.82 125.081 292.4 124.976 292.022 124.766C291.65 124.556 291.356 124.259 291.14 123.875C290.93 123.485 290.825 123.035 290.825 122.525C290.825 122.021 290.933 121.577 291.149 121.193C291.371 120.803 291.671 120.506 292.049 120.302C292.427 120.092 292.85 119.987 293.318 119.987C293.786 119.987 294.209 120.092 294.587 120.302C294.965 120.506 295.262 120.8 295.478 121.184C295.7 121.568 295.811 122.015 295.811 122.525C295.811 123.035 295.697 123.485 295.469 123.875C295.247 124.259 294.944 124.556 294.56 124.766C294.176 124.976 293.75 125.081 293.282 125.081ZM293.282 124.361C293.576 124.361 293.852 124.292 294.11 124.154C294.368 124.016 294.575 123.809 294.731 123.533C294.893 123.257 294.974 122.921 294.974 122.525C294.974 122.129 294.896 121.793 294.74 121.517C294.584 121.241 294.38 121.037 294.128 120.905C293.876 120.767 293.603 120.698 293.309 120.698C293.009 120.698 292.733 120.767 292.481 120.905C292.235 121.037 292.037 121.241 291.887 121.517C291.737 121.793 291.662 122.129 291.662 122.525C291.662 122.927 291.734 123.266 291.878 123.542C292.028 123.818 292.226 124.025 292.472 124.163C292.718 124.295 292.988 124.361 293.282 124.361ZM302.819 119.978C303.203 119.978 303.545 120.059 303.845 120.221C304.145 120.377 304.382 120.614 304.556 120.932C304.73 121.25 304.817 121.637 304.817 122.093V125H304.007V122.21C304.007 121.718 303.884 121.343 303.638 121.085C303.398 120.821 303.071 120.689 302.657 120.689C302.231 120.689 301.892 120.827 301.64 121.103C301.388 121.373 301.262 121.766 301.262 122.282V125H300.452V122.21C300.452 121.718 300.329 121.343 300.083 121.085C299.843 120.821 299.516 120.689 299.102 120.689C298.676 120.689 298.337 120.827 298.085 121.103C297.833 121.373 297.707 121.766 297.707 122.282V125H296.888V120.068H297.707V120.779C297.869 120.521 298.085 120.323 298.355 120.185C298.631 120.047 298.934 119.978 299.264 119.978C299.678 119.978 300.044 120.071 300.362 120.257C300.68 120.443 300.917 120.716 301.073 121.076C301.211 120.728 301.439 120.458 301.757 120.266C302.075 120.074 302.429 119.978 302.819 119.978ZM310.661 122.345C310.661 122.501 310.652 122.666 310.634 122.84H306.692C306.722 123.326 306.887 123.707 307.187 123.983C307.493 124.253 307.862 124.388 308.294 124.388C308.648 124.388 308.942 124.307 309.176 124.145C309.416 123.977 309.584 123.755 309.68 123.479H310.562C310.43 123.953 310.166 124.34 309.77 124.64C309.374 124.934 308.882 125.081 308.294 125.081C307.826 125.081 307.406 124.976 307.034 124.766C306.668 124.556 306.38 124.259 306.17 123.875C305.96 123.485 305.855 123.035 305.855 122.525C305.855 122.015 305.957 121.568 306.161 121.184C306.365 120.8 306.65 120.506 307.016 120.302C307.388 120.092 307.814 119.987 308.294 119.987C308.762 119.987 309.176 120.089 309.536 120.293C309.896 120.497 310.172 120.779 310.364 121.139C310.562 121.493 310.661 121.895 310.661 122.345ZM309.815 122.174C309.815 121.862 309.746 121.595 309.608 121.373C309.47 121.145 309.281 120.974 309.041 120.86C308.807 120.74 308.546 120.68 308.258 120.68C307.844 120.68 307.49 120.812 307.196 121.076C306.908 121.34 306.743 121.706 306.701 122.174H309.815Z" fill="#5B5CA6"/>
<path d="M454.484 103.312C454.884 103.328 455.268 103.38 455.636 103.468C456.004 103.548 456.336 103.664 456.632 103.816L456.2 104.728C455.96 104.616 455.696 104.516 455.408 104.428C455.128 104.34 454.82 104.288 454.484 104.272V111.172C454.812 111.156 455.124 111.12 455.42 111.064C455.716 111 456.008 110.924 456.296 110.836V111.772C456.024 111.876 455.744 111.952 455.456 112C455.176 112.056 454.852 112.092 454.484 112.108V112.96H453.716V112.108C452.924 112.052 452.264 111.84 451.736 111.472C451.208 111.096 450.812 110.588 450.548 109.948C450.284 109.308 450.152 108.56 450.152 107.704C450.152 106.904 450.288 106.192 450.56 105.568C450.84 104.936 451.244 104.428 451.772 104.044C452.3 103.652 452.948 103.42 453.716 103.348V102.892H454.484V103.312ZM453.716 104.296C453.212 104.376 452.78 104.564 452.42 104.86C452.06 105.156 451.78 105.548 451.58 106.036C451.388 106.516 451.292 107.076 451.292 107.716C451.292 108.356 451.38 108.92 451.556 109.408C451.74 109.896 452.012 110.288 452.372 110.584C452.732 110.88 453.18 111.064 453.716 111.136V104.296ZM466.479 104.428H462.459V106.816C462.627 106.592 462.875 106.404 463.203 106.252C463.539 106.1 463.895 106.024 464.271 106.024C464.943 106.024 465.487 106.168 465.903 106.456C466.327 106.744 466.627 107.108 466.803 107.548C466.987 107.988 467.079 108.452 467.079 108.94C467.079 109.532 466.963 110.06 466.731 110.524C466.507 110.98 466.167 111.34 465.711 111.604C465.263 111.868 464.711 112 464.055 112C463.183 112 462.483 111.784 461.955 111.352C461.427 110.92 461.111 110.348 461.007 109.636H462.339C462.427 110.012 462.623 110.312 462.927 110.536C463.231 110.752 463.611 110.86 464.067 110.86C464.635 110.86 465.059 110.688 465.339 110.344C465.627 110 465.771 109.544 465.771 108.976C465.771 108.4 465.627 107.96 465.339 107.656C465.051 107.344 464.627 107.188 464.067 107.188C463.675 107.188 463.343 107.288 463.071 107.488C462.807 107.68 462.615 107.944 462.495 108.28H461.199V103.228H466.479V104.428ZM469.235 112.084C468.987 112.084 468.779 112 468.611 111.832C468.443 111.664 468.359 111.456 468.359 111.208C468.359 110.96 468.443 110.752 468.611 110.584C468.779 110.416 468.987 110.332 469.235 110.332C469.475 110.332 469.679 110.416 469.847 110.584C470.015 110.752 470.099 110.96 470.099 111.208C470.099 111.456 470.015 111.664 469.847 111.832C469.679 112 469.475 112.084 469.235 112.084ZM471.374 105.412C471.422 104.668 471.706 104.088 472.226 103.672C472.754 103.256 473.426 103.048 474.242 103.048C474.802 103.048 475.286 103.148 475.694 103.348C476.102 103.548 476.41 103.82 476.618 104.164C476.826 104.508 476.93 104.896 476.93 105.328C476.93 105.824 476.798 106.248 476.534 106.6C476.27 106.952 475.954 107.188 475.586 107.308V107.356C476.058 107.5 476.426 107.764 476.69 108.148C476.954 108.524 477.086 109.008 477.086 109.6C477.086 110.072 476.978 110.492 476.762 110.86C476.546 111.228 476.226 111.52 475.802 111.736C475.378 111.944 474.87 112.048 474.278 112.048C473.414 112.048 472.702 111.828 472.142 111.388C471.59 110.94 471.294 110.3 471.254 109.468H472.574C472.606 109.892 472.77 110.24 473.066 110.512C473.362 110.776 473.762 110.908 474.266 110.908C474.754 110.908 475.13 110.776 475.394 110.512C475.658 110.24 475.79 109.892 475.79 109.468C475.79 108.908 475.61 108.512 475.25 108.28C474.898 108.04 474.354 107.92 473.618 107.92H473.306V106.792H473.63C474.278 106.784 474.77 106.676 475.106 106.468C475.45 106.26 475.622 105.932 475.622 105.484C475.622 105.1 475.498 104.796 475.25 104.572C475.002 104.34 474.65 104.224 474.194 104.224C473.746 104.224 473.398 104.34 473.15 104.572C472.902 104.796 472.754 105.076 472.706 105.412H471.374ZM478.343 104.5V103.252H480.839V112H479.459V104.5H478.343ZM491.682 103.66V112H490.314V106.288L487.77 112H486.822L484.266 106.288V112H482.898V103.66H484.374L487.302 110.2L490.218 103.66H491.682ZM451.849 119.393V121.49H454.135V122.165H451.849V124.325H454.405V125H451.03V118.718H454.405V119.393H451.849ZM458.218 125L457.048 123.164L455.923 125H455.068L456.661 122.552L455.068 120.068H455.995L457.165 121.895L458.281 120.068H459.136L457.552 122.507L459.145 125H458.218ZM460.77 120.977C460.932 120.695 461.172 120.461 461.49 120.275C461.814 120.083 462.189 119.987 462.615 119.987C463.053 119.987 463.449 120.092 463.803 120.302C464.163 120.512 464.445 120.809 464.649 121.193C464.853 121.571 464.955 122.012 464.955 122.516C464.955 123.014 464.853 123.458 464.649 123.848C464.445 124.238 464.163 124.541 463.803 124.757C463.449 124.973 463.053 125.081 462.615 125.081C462.195 125.081 461.823 124.988 461.499 124.802C461.181 124.61 460.938 124.373 460.77 124.091V127.34H459.951V120.068H460.77V120.977ZM464.118 122.516C464.118 122.144 464.043 121.82 463.893 121.544C463.743 121.268 463.539 121.058 463.281 120.914C463.029 120.77 462.75 120.698 462.444 120.698C462.144 120.698 461.865 120.773 461.607 120.923C461.355 121.067 461.151 121.28 460.995 121.562C460.845 121.838 460.77 122.159 460.77 122.525C460.77 122.897 460.845 123.224 460.995 123.506C461.151 123.782 461.355 123.995 461.607 124.145C461.865 124.289 462.144 124.361 462.444 124.361C462.75 124.361 463.029 124.289 463.281 124.145C463.539 123.995 463.743 123.782 463.893 123.506C464.043 123.224 464.118 122.894 464.118 122.516ZM470.533 122.345C470.533 122.501 470.524 122.666 470.506 122.84H466.564C466.594 123.326 466.759 123.707 467.059 123.983C467.365 124.253 467.734 124.388 468.166 124.388C468.52 124.388 468.814 124.307 469.048 124.145C469.288 123.977 469.456 123.755 469.552 123.479H470.434C470.302 123.953 470.038 124.34 469.642 124.64C469.246 124.934 468.754 125.081 468.166 125.081C467.698 125.081 467.278 124.976 466.906 124.766C466.54 124.556 466.252 124.259 466.042 123.875C465.832 123.485 465.727 123.035 465.727 122.525C465.727 122.015 465.829 121.568 466.033 121.184C466.237 120.8 466.522 120.506 466.888 120.302C467.26 120.092 467.686 119.987 468.166 119.987C468.634 119.987 469.048 120.089 469.408 120.293C469.768 120.497 470.044 120.779 470.236 121.139C470.434 121.493 470.533 121.895 470.533 122.345ZM469.687 122.174C469.687 121.862 469.618 121.595 469.48 121.373C469.342 121.145 469.153 120.974 468.913 120.86C468.679 120.74 468.418 120.68 468.13 120.68C467.716 120.68 467.362 120.812 467.068 121.076C466.78 121.34 466.615 121.706 466.573 122.174H469.687ZM474.017 119.978C474.617 119.978 475.103 120.161 475.475 120.527C475.847 120.887 476.033 121.409 476.033 122.093V125H475.223V122.21C475.223 121.718 475.1 121.343 474.854 121.085C474.608 120.821 474.272 120.689 473.846 120.689C473.414 120.689 473.069 120.824 472.811 121.094C472.559 121.364 472.433 121.757 472.433 122.273V125H471.614V120.068H472.433V120.77C472.595 120.518 472.814 120.323 473.09 120.185C473.372 120.047 473.681 119.978 474.017 119.978ZM479.117 125.081C478.739 125.081 478.4 125.018 478.1 124.892C477.8 124.76 477.563 124.58 477.389 124.352C477.215 124.118 477.119 123.851 477.101 123.551H477.947C477.971 123.797 478.085 123.998 478.289 124.154C478.499 124.31 478.772 124.388 479.108 124.388C479.42 124.388 479.666 124.319 479.846 124.181C480.026 124.043 480.116 123.869 480.116 123.659C480.116 123.443 480.02 123.284 479.828 123.182C479.636 123.074 479.339 122.969 478.937 122.867C478.571 122.771 478.271 122.675 478.037 122.579C477.809 122.477 477.611 122.33 477.443 122.138C477.281 121.94 477.2 121.682 477.2 121.364C477.2 121.112 477.275 120.881 477.425 120.671C477.575 120.461 477.788 120.296 478.064 120.176C478.34 120.05 478.655 119.987 479.009 119.987C479.555 119.987 479.996 120.125 480.332 120.401C480.668 120.677 480.848 121.055 480.872 121.535H480.053C480.035 121.277 479.93 121.07 479.738 120.914C479.552 120.758 479.3 120.68 478.982 120.68C478.688 120.68 478.454 120.743 478.28 120.869C478.106 120.995 478.019 121.16 478.019 121.364C478.019 121.526 478.07 121.661 478.172 121.769C478.28 121.871 478.412 121.955 478.568 122.021C478.73 122.081 478.952 122.15 479.234 122.228C479.588 122.324 479.876 122.42 480.098 122.516C480.32 122.606 480.509 122.744 480.665 122.93C480.827 123.116 480.911 123.359 480.917 123.659C480.917 123.929 480.842 124.172 480.692 124.388C480.542 124.604 480.329 124.775 480.053 124.901C479.783 125.021 479.471 125.081 479.117 125.081ZM486.573 122.345C486.573 122.501 486.564 122.666 486.546 122.84H482.604C482.634 123.326 482.799 123.707 483.099 123.983C483.405 124.253 483.774 124.388 484.206 124.388C484.56 124.388 484.854 124.307 485.088 124.145C485.328 123.977 485.496 123.755 485.592 123.479H486.474C486.342 123.953 486.078 124.34 485.682 124.64C485.286 124.934 484.794 125.081 484.206 125.081C483.738 125.081 483.318 124.976 482.946 124.766C482.58 124.556 482.292 124.259 482.082 123.875C481.872 123.485 481.767 123.035 481.767 122.525C481.767 122.015 481.869 121.568 482.073 121.184C482.277 120.8 482.562 120.506 482.928 120.302C483.3 120.092 483.726 119.987 484.206 119.987C484.674 119.987 485.088 120.089 485.448 120.293C485.808 120.497 486.084 120.779 486.276 121.139C486.474 121.493 486.573 121.895 486.573 122.345ZM485.727 122.174C485.727 121.862 485.658 121.595 485.52 121.373C485.382 121.145 485.193 120.974 484.953 120.86C484.719 120.74 484.458 120.68 484.17 120.68C483.756 120.68 483.402 120.812 483.108 121.076C482.82 121.34 482.655 121.706 482.613 122.174H485.727ZM489.4 125.081C489.022 125.081 488.683 125.018 488.383 124.892C488.083 124.76 487.846 124.58 487.672 124.352C487.498 124.118 487.402 123.851 487.384 123.551H488.23C488.254 123.797 488.368 123.998 488.572 124.154C488.782 124.31 489.055 124.388 489.391 124.388C489.703 124.388 489.949 124.319 490.129 124.181C490.309 124.043 490.399 123.869 490.399 123.659C490.399 123.443 490.303 123.284 490.111 123.182C489.919 123.074 489.622 122.969 489.22 122.867C488.854 122.771 488.554 122.675 488.32 122.579C488.092 122.477 487.894 122.33 487.726 122.138C487.564 121.94 487.483 121.682 487.483 121.364C487.483 121.112 487.558 120.881 487.708 120.671C487.858 120.461 488.071 120.296 488.347 120.176C488.623 120.05 488.938 119.987 489.292 119.987C489.838 119.987 490.279 120.125 490.615 120.401C490.951 120.677 491.131 121.055 491.155 121.535H490.336C490.318 121.277 490.213 121.07 490.021 120.914C489.835 120.758 489.583 120.68 489.265 120.68C488.971 120.68 488.737 120.743 488.563 120.869C488.389 120.995 488.302 121.16 488.302 121.364C488.302 121.526 488.353 121.661 488.455 121.769C488.563 121.871 488.695 121.955 488.851 122.021C489.013 122.081 489.235 122.15 489.517 122.228C489.871 122.324 490.159 122.42 490.381 122.516C490.603 122.606 490.792 122.744 490.948 122.93C491.11 123.116 491.194 123.359 491.2 123.659C491.2 123.929 491.125 124.172 490.975 124.388C490.825 124.604 490.612 124.775 490.336 124.901C490.066 125.021 489.754 125.081 489.4 125.081Z" fill="#5B5CA6"/>
<path d="M283.288 74.112C282.243 74.112 281.283 73.8667 280.408 73.376C279.533 72.8853 278.84 72.208 278.328 71.344C277.816 70.4693 277.56 69.4827 277.56 68.384C277.56 67.296 277.816 66.32 278.328 65.456C278.84 64.5813 279.533 63.8987 280.408 63.408C281.283 62.9173 282.243 62.672 283.288 62.672C284.344 62.672 285.304 62.9173 286.168 63.408C287.043 63.8987 287.731 64.5813 288.232 65.456C288.744 66.32 289 67.296 289 68.384C289 69.4827 288.744 70.4693 288.232 71.344C287.731 72.208 287.043 72.8853 286.168 73.376C285.293 73.8667 284.333 74.112 283.288 74.112ZM283.288 72.112C283.96 72.112 284.552 71.9627 285.064 71.664C285.576 71.3547 285.976 70.9173 286.264 70.352C286.552 69.7867 286.696 69.1307 286.696 68.384C286.696 67.6373 286.552 66.9867 286.264 66.432C285.976 65.8667 285.576 65.4347 285.064 65.136C284.552 64.8373 283.96 64.688 283.288 64.688C282.616 64.688 282.019 64.8373 281.496 65.136C280.984 65.4347 280.584 65.8667 280.296 66.432C280.008 66.9867 279.864 67.6373 279.864 68.384C279.864 69.1307 280.008 69.7867 280.296 70.352C280.584 70.9173 280.984 71.3547 281.496 71.664C282.019 71.9627 282.616 72.112 283.288 72.112ZM295.579 65.008C296.635 65.008 297.488 65.344 298.139 66.016C298.789 66.6773 299.115 67.6053 299.115 68.8V74H296.875V69.104C296.875 68.4 296.699 67.8613 296.347 67.488C295.995 67.104 295.515 66.912 294.907 66.912C294.288 66.912 293.797 67.104 293.435 67.488C293.083 67.8613 292.907 68.4 292.907 69.104V74H290.667V65.136H292.907V66.24C293.205 65.856 293.584 65.5573 294.043 65.344C294.512 65.12 295.024 65.008 295.579 65.008ZM303.485 62.16V74H301.245V62.16H303.485ZM306.834 64.08C306.439 64.08 306.108 63.9573 305.842 63.712C305.586 63.456 305.458 63.1413 305.458 62.768C305.458 62.3947 305.586 62.0853 305.842 61.84C306.108 61.584 306.439 61.456 306.834 61.456C307.228 61.456 307.554 61.584 307.81 61.84C308.076 62.0853 308.21 62.3947 308.21 62.768C308.21 63.1413 308.076 63.456 307.81 63.712C307.554 63.9573 307.228 64.08 306.834 64.08ZM307.938 65.136V74H305.698V65.136H307.938ZM315.063 65.008C316.119 65.008 316.972 65.344 317.623 66.016C318.274 66.6773 318.599 67.6053 318.599 68.8V74H316.359V69.104C316.359 68.4 316.183 67.8613 315.831 67.488C315.479 67.104 314.999 66.912 314.391 66.912C313.772 66.912 313.282 67.104 312.919 67.488C312.567 67.8613 312.391 68.4 312.391 69.104V74H310.151V65.136H312.391V66.24C312.69 65.856 313.068 65.5573 313.527 65.344C313.996 65.12 314.508 65.008 315.063 65.008ZM328.969 69.376C328.969 69.696 328.948 69.984 328.905 70.24H322.425C322.478 70.88 322.702 71.3813 323.097 71.744C323.492 72.1067 323.977 72.288 324.553 72.288C325.385 72.288 325.977 71.9307 326.329 71.216H328.745C328.489 72.0693 327.998 72.7733 327.273 73.328C326.548 73.872 325.657 74.144 324.601 74.144C323.748 74.144 322.98 73.9573 322.297 73.584C321.625 73.2 321.097 72.6613 320.713 71.968C320.34 71.2747 320.153 70.4747 320.153 69.568C320.153 68.6507 320.34 67.8453 320.713 67.152C321.086 66.4587 321.609 65.9253 322.281 65.552C322.953 65.1787 323.726 64.992 324.601 64.992C325.444 64.992 326.196 65.1733 326.857 65.536C327.529 65.8987 328.046 66.416 328.409 67.088C328.782 67.7493 328.969 68.512 328.969 69.376ZM326.649 68.736C326.638 68.16 326.43 67.7013 326.025 67.36C325.62 67.008 325.124 66.832 324.537 66.832C323.982 66.832 323.513 67.0027 323.129 67.344C322.756 67.6747 322.526 68.1387 322.441 68.736H326.649ZM341.265 71.872H336.817L336.081 74H333.729L337.745 62.816H340.353L344.369 74H342.001L341.265 71.872ZM340.657 70.08L339.041 65.408L337.424 70.08H340.657ZM350.782 65.008C351.838 65.008 352.691 65.344 353.342 66.016C353.992 66.6773 354.318 67.6053 354.318 68.8V74H352.078V69.104C352.078 68.4 351.902 67.8613 351.55 67.488C351.198 67.104 350.718 66.912 350.11 66.912C349.491 66.912 349 67.104 348.638 67.488C348.286 67.8613 348.11 68.4 348.11 69.104V74H345.87V65.136H348.11V66.24C348.408 65.856 348.787 65.5573 349.246 65.344C349.715 65.12 350.227 65.008 350.782 65.008ZM355.872 69.536C355.872 68.64 356.048 67.8453 356.4 67.152C356.762 66.4587 357.248 65.9253 357.856 65.552C358.474 65.1787 359.162 64.992 359.92 64.992C360.581 64.992 361.157 65.1253 361.648 65.392C362.149 65.6587 362.549 65.9947 362.848 66.4V65.136H365.104V74H362.848V72.704C362.56 73.12 362.16 73.4667 361.648 73.744C361.146 74.0107 360.565 74.144 359.904 74.144C359.157 74.144 358.474 73.952 357.856 73.568C357.248 73.184 356.762 72.6453 356.4 71.952C356.048 71.248 355.872 70.4427 355.872 69.536ZM362.848 69.568C362.848 69.024 362.741 68.56 362.528 68.176C362.314 67.7813 362.026 67.4827 361.664 67.28C361.301 67.0667 360.912 66.96 360.496 66.96C360.08 66.96 359.696 67.0613 359.344 67.264C358.992 67.4667 358.704 67.7653 358.48 68.16C358.266 68.544 358.16 69.0027 358.16 69.536C358.16 70.0693 358.266 70.5387 358.48 70.944C358.704 71.3387 358.992 71.6427 359.344 71.856C359.706 72.0693 360.09 72.176 360.496 72.176C360.912 72.176 361.301 72.0747 361.664 71.872C362.026 71.6587 362.314 71.36 362.528 70.976C362.741 70.5813 362.848 70.112 362.848 69.568ZM369.532 62.16V74H367.292V62.16H369.532ZM380.225 65.136L374.737 78.192H372.353L374.273 73.776L370.721 65.136H373.233L375.521 71.328L377.841 65.136H380.225ZM384.824 74.144C384.099 74.144 383.448 74.016 382.872 73.76C382.296 73.4933 381.837 73.136 381.496 72.688C381.165 72.24 380.984 71.744 380.952 71.2H383.208C383.251 71.5413 383.416 71.824 383.704 72.048C384.003 72.272 384.371 72.384 384.808 72.384C385.235 72.384 385.565 72.2987 385.8 72.128C386.045 71.9573 386.168 71.7387 386.168 71.472C386.168 71.184 386.019 70.9707 385.72 70.832C385.432 70.6827 384.968 70.5227 384.328 70.352C383.667 70.192 383.123 70.0267 382.696 69.856C382.28 69.6853 381.917 69.424 381.608 69.072C381.309 68.72 381.16 68.2453 381.16 67.648C381.16 67.1573 381.299 66.7093 381.576 66.304C381.864 65.8987 382.269 65.5787 382.792 65.344C383.325 65.1093 383.949 64.992 384.664 64.992C385.72 64.992 386.563 65.2587 387.192 65.792C387.821 66.3147 388.168 67.024 388.232 67.92H386.088C386.056 67.568 385.907 67.2907 385.64 67.088C385.384 66.8747 385.037 66.768 384.6 66.768C384.195 66.768 383.88 66.8427 383.656 66.992C383.443 67.1413 383.336 67.3493 383.336 67.616C383.336 67.9147 383.485 68.144 383.784 68.304C384.083 68.4533 384.547 68.608 385.176 68.768C385.816 68.928 386.344 69.0933 386.76 69.264C387.176 69.4347 387.533 69.7013 387.832 70.064C388.141 70.416 388.301 70.8853 388.312 71.472C388.312 71.984 388.168 72.4427 387.88 72.848C387.603 73.2533 387.197 73.5733 386.664 73.808C386.141 74.032 385.528 74.144 384.824 74.144ZM391.287 64.08C390.892 64.08 390.562 63.9573 390.295 63.712C390.039 63.456 389.911 63.1413 389.911 62.768C389.911 62.3947 390.039 62.0853 390.295 61.84C390.562 61.584 390.892 61.456 391.287 61.456C391.682 61.456 392.007 61.584 392.263 61.84C392.53 62.0853 392.663 62.3947 392.663 62.768C392.663 63.1413 392.53 63.456 392.263 63.712C392.007 63.9573 391.682 64.08 391.287 64.08ZM392.391 65.136V74H390.151V65.136H392.391ZM397.996 74.144C397.271 74.144 396.62 74.016 396.044 73.76C395.468 73.4933 395.009 73.136 394.668 72.688C394.337 72.24 394.156 71.744 394.124 71.2H396.38C396.423 71.5413 396.588 71.824 396.876 72.048C397.175 72.272 397.543 72.384 397.98 72.384C398.407 72.384 398.737 72.2987 398.972 72.128C399.217 71.9573 399.34 71.7387 399.34 71.472C399.34 71.184 399.191 70.9707 398.892 70.832C398.604 70.6827 398.14 70.5227 397.5 70.352C396.839 70.192 396.295 70.0267 395.868 69.856C395.452 69.6853 395.089 69.424 394.78 69.072C394.481 68.72 394.332 68.2453 394.332 67.648C394.332 67.1573 394.471 66.7093 394.748 66.304C395.036 65.8987 395.441 65.5787 395.964 65.344C396.497 65.1093 397.121 64.992 397.836 64.992C398.892 64.992 399.735 65.2587 400.364 65.792C400.993 66.3147 401.34 67.024 401.404 67.92H399.26C399.228 67.568 399.079 67.2907 398.812 67.088C398.556 66.8747 398.209 66.768 397.772 66.768C397.367 66.768 397.052 66.8427 396.828 66.992C396.615 67.1413 396.508 67.3493 396.508 67.616C396.508 67.9147 396.657 68.144 396.956 68.304C397.255 68.4533 397.719 68.608 398.348 68.768C398.988 68.928 399.516 69.0933 399.932 69.264C400.348 69.4347 400.705 69.7013 401.004 70.064C401.313 70.416 401.473 70.8853 401.484 71.472C401.484 71.984 401.34 72.4427 401.052 72.848C400.775 73.2533 400.369 73.5733 399.836 73.808C399.313 74.032 398.7 74.144 397.996 74.144Z" fill="#5B5CA6"/>
<path d="M440.38 66.6V65.77H442.26V73H441.34V66.6H440.38ZM453.709 66.08V73H452.799V67.84L450.499 73H449.859L447.549 67.83V73H446.639V66.08H447.619L450.179 71.8L452.739 66.08H453.709ZM457.642 73.09C457.129 73.09 456.662 72.9733 456.242 72.74C455.829 72.5067 455.502 72.1767 455.262 71.75C455.029 71.3167 454.912 70.8167 454.912 70.25C454.912 69.69 455.032 69.1967 455.272 68.77C455.519 68.3367 455.852 68.0067 456.272 67.78C456.692 67.5467 457.162 67.43 457.682 67.43C458.202 67.43 458.672 67.5467 459.092 67.78C459.512 68.0067 459.842 68.3333 460.082 68.76C460.329 69.1867 460.452 69.6833 460.452 70.25C460.452 70.8167 460.326 71.3167 460.072 71.75C459.826 72.1767 459.489 72.5067 459.062 72.74C458.636 72.9733 458.162 73.09 457.642 73.09ZM457.642 72.29C457.969 72.29 458.276 72.2133 458.562 72.06C458.849 71.9067 459.079 71.6767 459.252 71.37C459.432 71.0633 459.522 70.69 459.522 70.25C459.522 69.81 459.436 69.4367 459.262 69.13C459.089 68.8233 458.862 68.5967 458.582 68.45C458.302 68.2967 457.999 68.22 457.672 68.22C457.339 68.22 457.032 68.2967 456.752 68.45C456.479 68.5967 456.259 68.8233 456.092 69.13C455.926 69.4367 455.842 69.81 455.842 70.25C455.842 70.6967 455.922 71.0733 456.082 71.38C456.249 71.6867 456.469 71.9167 456.742 72.07C457.016 72.2167 457.316 72.29 457.642 72.29ZM464.319 67.42C464.986 67.42 465.526 67.6233 465.939 68.03C466.352 68.43 466.559 69.01 466.559 69.77V73H465.659V69.9C465.659 69.3533 465.522 68.9367 465.249 68.65C464.976 68.3567 464.602 68.21 464.129 68.21C463.649 68.21 463.266 68.36 462.979 68.66C462.699 68.96 462.559 69.3967 462.559 69.97V73H461.649V67.52H462.559V68.3C462.739 68.02 462.982 67.8033 463.289 67.65C463.602 67.4967 463.946 67.42 464.319 67.42ZM469.155 68.27V71.5C469.155 71.7667 469.212 71.9567 469.325 72.07C469.439 72.1767 469.635 72.23 469.915 72.23H470.585V73H469.765C469.259 73 468.879 72.8833 468.625 72.65C468.372 72.4167 468.245 72.0333 468.245 71.5V68.27H467.535V67.52H468.245V66.14H469.155V67.52H470.585V68.27H469.155ZM474.408 67.42C474.821 67.42 475.195 67.51 475.528 67.69C475.861 67.8633 476.121 68.1267 476.308 68.48C476.501 68.8333 476.598 69.2633 476.598 69.77V73H475.698V69.9C475.698 69.3533 475.561 68.9367 475.288 68.65C475.015 68.3567 474.641 68.21 474.168 68.21C473.688 68.21 473.305 68.36 473.018 68.66C472.738 68.96 472.598 69.3967 472.598 69.97V73H471.688V65.6H472.598V68.3C472.778 68.02 473.025 67.8033 473.338 67.65C473.658 67.4967 474.015 67.42 474.408 67.42Z" fill="#5B5CA6"/>
<g clip-path="url(#clip0_9_8)">
<path d="M326 341L331 346L336 341H326Z" fill="#5B5CA6"/>
</g>
<path d="M482 69L484.917 71.9167L487.833 69H482Z" fill="#5B5CA6"/>
<path d="M155.884 389.65C156.579 388.841 157 387.811 157 386.679C157.006 384.186 154.979 382.148 152.424 382.006C152.333 382 152.247 382 152.151 382C150.99 381.994 149.925 382.387 149.089 383.03L152.151 386.013L151.547 386.605C150.085 385.5 148.292 384.783 146.357 384.618V384.613C146.357 384.129 145.958 383.73 145.474 383.73C144.991 383.73 144.592 384.129 144.592 384.613V384.618C142.657 384.783 140.893 385.5 139.436 386.605L138.844 386.018L141.906 383.036C141.069 382.387 140.005 382 138.849 382.006C138.758 382.006 138.667 382.011 138.576 382.011C136.015 382.154 133.989 384.191 134 386.684C134 387.811 134.421 388.847 135.116 389.655L138.189 386.662L138.73 387.202C136.732 389.018 135.48 391.642 135.48 394.556C135.48 397.054 136.402 399.337 137.927 401.084L135.856 403.623L136.567 404.197L138.57 401.756C140.369 403.475 142.805 404.539 145.491 404.539H145.497C145.497 404.539 145.509 404.539 145.514 404.539C148.201 404.539 150.648 403.475 152.447 401.756L154.45 404.203L155.15 403.628L153.073 401.084C154.598 399.331 155.52 397.049 155.52 394.556C155.52 391.647 154.268 389.018 152.265 387.197L152.805 386.656L155.884 389.65ZM146.414 396.002H140.039V395.091H145.503V387.806H146.414V396.002Z" fill="#5B5CA6"/>
<path d="M208.952 396.866H203.003C201.66 396.866 200.508 395.771 200.508 394.494V388.927C200.604 388.197 200.029 387.65 199.261 387.741C193.984 388.471 190.05 393.216 191.201 398.691C191.873 402.25 194.943 405.079 198.685 405.809C204.346 406.904 209.432 403.162 210.199 398.144C210.295 397.414 209.719 396.866 208.952 396.866Z" fill="#5B5CA6"/>
<path d="M214.037 393.764C213.749 391.3 212.598 389.019 210.679 387.194C208.856 385.46 206.361 384.274 203.771 384C203.099 384 202.523 384.547 202.523 385.186V394.129C202.523 394.676 203.003 395.041 203.483 395.041H212.886C213.557 395.041 214.133 394.494 214.037 393.764Z" fill="#5B5CA6"/>
<path d="M272 395C272 396.104 271.194 397 270.2 397H255.8C254.806 397 254 396.104 254 395C254 393.896 254.806 393 255.8 393H270.2C271.194 393 272 393.896 272 395Z" fill="#5B5CA6"/>
<path d="M272 385C272 386.104 271.194 387 270.2 387H255.8C254.806 387 254 386.104 254 385C254 383.896 254.806 383 255.8 383H270.2C271.194 383 272 383.896 272 385Z" fill="#5B5CA6"/>
<path d="M272 405C272 406.104 271.194 407 270.2 407H255.8C254.806 407 254 406.104 254 405C254 403.896 254.806 403 255.8 403H270.2C271.194 403 272 403.896 272 405Z" fill="#5B5CA6"/>
<path d="M249 385C249 386.103 249.673 387 250.5 387C251.327 387 252 386.103 252 385C252 383.897 251.327 383 250.5 383C249.673 383 249 383.897 249 385Z" fill="#5B5CA6"/>
<path d="M249 395C249 396.103 249.673 397 250.5 397C251.327 397 252 396.103 252 395C252 393.897 251.327 393 250.5 393C249.673 393 249 393.897 249 395Z" fill="#5B5CA6"/>
<path d="M249 405C249 406.103 249.673 407 250.5 407C251.327 407 252 406.103 252 405C252 403.897 251.327 403 250.5 403C249.673 403 249 403.897 249 405Z" fill="#5B5CA6"/>
<path d="M317.2 408C318.47 408 319.5 407.015 319.5 405.8C319.5 404.585 318.47 403.6 317.2 403.6C315.93 403.6 314.9 404.585 314.9 405.8C314.9 407.015 315.93 408 317.2 408Z" fill="#5B5CA6"/>
<path d="M324.1 408C325.37 408 326.4 407.015 326.4 405.8C326.4 404.585 325.37 403.6 324.1 403.6C322.83 403.6 321.8 404.585 321.8 405.8C321.8 407.015 322.83 408 324.1 408Z" fill="#5B5CA6"/>
<path d="M330.54 392.38C330.08 391.83 329.39 391.5 328.7 391.5H315.59L314.9 387.76C314.67 386.77 313.75 386 312.6 386H310.3C309.035 386 308 386.99 308 388.2C308 389.41 309.035 390.4 310.3 390.4H310.645L312.6 399.64C312.83 400.74 313.75 401.4 314.9 401.4H326.4C327.435 401.4 328.24 400.74 328.585 399.86L330.885 394.36C331.115 393.7 331 393.04 330.54 392.38Z" fill="#5B5CA6"/>
<defs>
<filter id="filter0_b_9_8" x="-10" y="68" width="211" height="178" filterUnits="userSpaceOnUse" color-interpolation-filters="sRGB">
<feFlood flood-opacity="0" result="BackgroundImageFix"/>
<feGaussianBlur in="BackgroundImageFix" stdDeviation="5"/>
<feComposite in2="SourceAlpha" operator="in" result="effect1_backgroundBlur_9_8"/>
<feBlend mode="normal" in="SourceGraphic" in2="effect1_backgroundBlur_9_8" result="shape"/>
</filter>
<filter id="filter1_b_9_8" x="91" y="299" width="282" height="160" filterUnits="userSpaceOnUse" color-interpolation-filters="sRGB">
<feFlood flood-opacity="0" result="BackgroundImageFix"/>
<feGaussianBlur in="BackgroundImageFix" stdDeviation="5"/>
<feComposite in2="SourceAlpha" operator="in" result="effect1_backgroundBlur_9_8"/>
<feBlend mode="normal" in="SourceGraphic" in2="effect1_backgroundBlur_9_8" result="shape"/>
</filter>
<linearGradient id="paint0_linear_9_8" x1="121" y1="395" x2="169" y2="395" gradientUnits="userSpaceOnUse">
<stop stop-color="#00F5A0"/>
<stop offset="1" stop-color="#00D9F5"/>
</linearGradient>
<linearGradient id="paint1_linear_9_8" x1="179" y1="395" x2="227" y2="395" gradientUnits="userSpaceOnUse">
<stop stop-color="#00F5A0"/>
<stop offset="1" stop-color="#00D9F5"/>
</linearGradient>
<linearGradient id="paint2_linear_9_8" x1="237" y1="395" x2="285" y2="395" gradientUnits="userSpaceOnUse">
<stop stop-color="#00F5A0"/>
<stop offset="1" stop-color="#00D9F5"/>
</linearGradient>
<linearGradient id="paint3_linear_9_8" x1="295" y1="395" x2="343" y2="395" gradientUnits="userSpaceOnUse">
<stop stop-color="#00F5A0"/>
<stop offset="1" stop-color="#00D9F5"/>
</linearGradient>
<clipPath id="clip0_9_8">
<rect width="24" height="24" fill="white" transform="translate(319 331)"/>
</clipPath>
</defs>
</svg>
